<svg width="96" height="47" viewBox="0 0 96 47" fill="none" xmlns="http://www.w3.org/2000/svg">
<rect x="23.291" y="4" width="12.8" height="12.8" transform="rotate(45 23.291 4)" fill="#236AEE"/>
<rect x="13.051" y="14.24" width="12.8" height="12.8" transform="rotate(45 13.051 14.24)" fill="#236AEE"/>
<rect x="23.291" y="24.4329" width="12.8" height="12.8" transform="rotate(45 23.291 24.4329)" fill="#236AEE"/>
<path d="M44.2971 25.4685C44.3206 25.5271 44.4084 25.656 44.5608 25.8552C44.7131 26.0427 44.8831 26.2537 45.0706 26.488C45.2698 26.7107 45.4631 26.9275 45.6506 27.1384C45.8381 27.3494 45.967 27.5017 46.0374 27.5955C46.26 27.9236 46.4885 28.2458 46.7229 28.5623C46.9573 28.8787 47.1799 29.2068 47.3909 29.5466C47.4495 29.6052 47.4963 29.6814 47.5315 29.7751C47.5667 29.8572 47.5842 29.9451 47.5842 30.0388C47.5842 30.1443 47.5549 30.2029 47.4963 30.2146C47.4495 30.2146 47.3967 30.2263 47.3381 30.2498C47.2209 30.3318 47.1155 30.3787 47.0217 30.3904C46.928 30.4021 46.8518 30.408 46.7932 30.408C46.6643 30.408 46.5237 30.4021 46.3713 30.3904C46.219 30.3904 46.0901 30.4021 45.9846 30.4255C45.9495 30.4373 45.9084 30.4548 45.8616 30.4783C45.8147 30.5134 45.7795 30.531 45.7561 30.531C45.6624 30.531 45.592 30.5134 45.5452 30.4783C45.51 30.4548 45.4573 30.4314 45.387 30.408C45.2932 30.3025 45.2053 30.1912 45.1233 30.074C45.053 29.9568 44.9768 29.8396 44.8948 29.7224C44.8245 29.6404 44.7483 29.5701 44.6663 29.5115C44.5842 29.4412 44.5081 29.3591 44.4377 29.2654C44.2502 28.9958 44.0569 28.738 43.8577 28.4919C43.6702 28.2458 43.4768 27.9998 43.2776 27.7537C43.1838 27.6248 43.0784 27.5017 42.9612 27.3845C42.8557 27.2673 42.7561 27.1501 42.6624 27.033C42.5686 26.9041 42.4807 26.7693 42.3987 26.6287C42.3167 26.488 42.2288 26.3533 42.135 26.2244C42.0647 26.1072 41.9651 25.9666 41.8362 25.8025C41.7073 25.6267 41.5725 25.4509 41.4319 25.2751C41.2913 25.0994 41.1448 24.9353 40.9924 24.783C40.8518 24.6189 40.7288 24.4958 40.6233 24.4138C40.6233 24.3318 40.5999 24.2732 40.553 24.238C40.5061 24.2029 40.4534 24.1619 40.3948 24.115C40.3713 24.0564 40.342 24.0037 40.3069 23.9568C40.2717 23.8982 40.2542 23.8337 40.2542 23.7634C40.2542 23.7166 40.26 23.6755 40.2717 23.6404C40.2834 23.6052 40.2952 23.5701 40.3069 23.5349C40.3303 23.488 40.342 23.447 40.342 23.4119C40.3538 23.365 40.3713 23.3181 40.3948 23.2712C40.4534 23.1189 40.5354 22.9841 40.6409 22.8669C40.7581 22.7498 40.8459 22.615 40.9045 22.4626C40.9163 22.4158 40.9221 22.3748 40.9221 22.3396C40.9221 22.2927 40.9338 22.2458 40.9573 22.199C40.9924 22.1287 41.0452 22.0583 41.1155 21.988C41.1858 21.9177 41.2502 21.8416 41.3088 21.7595C41.3674 21.6541 41.426 21.5486 41.4846 21.4431C41.5432 21.3376 41.6018 21.2322 41.6604 21.1267C41.8245 20.8572 42.0061 20.5994 42.2053 20.3533C42.4045 20.0955 42.592 19.8435 42.7678 19.5974C42.9319 19.363 43.0842 19.1345 43.2249 18.9119C43.3655 18.6775 43.5178 18.4431 43.6819 18.2087C43.7639 18.0916 43.8577 17.9626 43.9631 17.822C44.0686 17.6697 44.1741 17.5232 44.2795 17.3826C44.3967 17.2419 44.5139 17.113 44.6311 16.9958C44.7483 16.8669 44.8655 16.7732 44.9827 16.7146C45.1819 16.6912 45.3108 16.7263 45.3694 16.8201C45.428 16.9021 45.51 16.9431 45.6155 16.9431C45.7795 16.9783 45.8909 17.031 45.9495 17.1013C46.0081 17.1716 46.0667 17.2361 46.1252 17.2947C46.2776 17.2947 46.4065 17.324 46.512 17.3826C46.6174 17.4412 46.7229 17.5291 46.8284 17.6462C46.7815 17.7751 46.717 17.8923 46.635 17.9978C46.5647 18.1033 46.5002 18.2146 46.4417 18.3318C46.3479 18.3669 46.2776 18.4255 46.2307 18.5076C46.1956 18.5896 46.137 18.6599 46.0549 18.7185C45.926 18.9177 45.7971 19.1169 45.6682 19.3162C45.5393 19.5037 45.4104 19.6853 45.2815 19.8611C45.2229 19.9314 45.1526 19.99 45.0706 20.0369C45.0002 20.072 44.9417 20.1306 44.8948 20.2126C44.8713 20.2478 44.8538 20.2888 44.842 20.3357C44.8303 20.3708 44.8127 20.406 44.7893 20.4412C44.6487 20.6638 44.4905 20.8806 44.3147 21.0916C44.1389 21.3025 43.9866 21.5251 43.8577 21.7595C43.7991 21.8416 43.7522 21.9294 43.717 22.0232C43.6819 22.1052 43.6409 22.1873 43.594 22.2693C43.5471 22.3396 43.4768 22.4392 43.3831 22.5681C43.301 22.697 43.2131 22.8318 43.1194 22.9724C43.0374 23.1013 42.9612 23.2302 42.8909 23.3591C42.8323 23.4763 42.803 23.5759 42.803 23.658C42.8147 23.7166 42.8909 23.8337 43.0315 24.0095C43.1721 24.1853 43.3245 24.3728 43.4885 24.572C43.6643 24.7712 43.8284 24.9587 43.9807 25.1345C44.1448 25.3103 44.2502 25.4216 44.2971 25.4685ZM55.9254 28.5798C55.9137 28.7556 55.9488 28.8904 56.0309 28.9841C56.1246 29.0662 56.2008 29.1716 56.2594 29.3005C56.2359 29.4646 56.2535 29.5935 56.3121 29.6873C56.277 29.7576 56.2418 29.8396 56.2067 29.9333C56.1715 30.0154 56.1188 30.0857 56.0484 30.1443C55.8609 30.2263 55.7496 30.2966 55.7145 30.3552C55.6793 30.4138 55.609 30.4431 55.5035 30.4431C55.4449 30.5017 55.3805 30.5603 55.3102 30.6189C55.2399 30.6892 55.1754 30.7537 55.1168 30.8123C55.0582 30.7888 55.0172 30.7595 54.9938 30.7244C54.9703 30.6892 54.9352 30.6423 54.8883 30.5837C54.7711 30.5486 54.6656 30.4841 54.5719 30.3904C54.4781 30.3083 54.3961 30.2146 54.3258 30.1091C54.2555 29.9919 54.1852 29.8748 54.1149 29.7576C54.0563 29.6287 54.0035 29.5115 53.9567 29.406C53.7926 29.1013 53.6227 28.7966 53.4469 28.4919C53.2828 28.1755 53.1129 27.865 52.9371 27.5603C52.8434 27.408 52.7496 27.2556 52.6559 27.1033C52.5738 26.9392 52.4859 26.7751 52.3922 26.6111C52.3688 26.5876 52.3453 26.5642 52.3219 26.5408C52.2984 26.5056 52.275 26.4705 52.2516 26.4353C52.1695 26.3181 52.1051 26.1892 52.0582 26.0486C52.0231 25.8962 51.941 25.7732 51.8121 25.6794C51.5895 25.656 51.3844 25.6912 51.1969 25.7849C51.0211 25.8669 50.8629 25.9783 50.7223 26.1189C50.734 26.2009 50.7399 26.2771 50.7399 26.3474C50.7399 26.4177 50.7399 26.488 50.7399 26.5583C50.7399 26.8279 50.7281 27.0857 50.7047 27.3318C50.6813 27.5779 50.6695 27.8357 50.6695 28.1052C50.6695 28.2224 50.6754 28.3455 50.6871 28.4744C50.6988 28.5916 50.7164 28.7087 50.7399 28.8259C50.7047 28.9548 50.6871 29.0955 50.6871 29.2478C50.6871 29.3298 50.693 29.406 50.7047 29.4763C50.7281 29.5466 50.7399 29.6228 50.7399 29.7048C50.7399 29.822 50.6988 29.9041 50.6168 29.9509C50.5465 29.9861 50.5231 30.0564 50.5465 30.1619C50.4059 30.2205 50.2711 30.2791 50.1422 30.3376C50.0133 30.3962 49.8785 30.4373 49.7379 30.4607C49.6793 30.4724 49.6207 30.4724 49.5621 30.4607C49.5035 30.4607 49.4508 30.4724 49.4039 30.4958C49.3453 30.5193 49.2984 30.5603 49.2633 30.6189C49.2281 30.6892 49.1813 30.7244 49.1227 30.7244C49.0524 30.7244 49.0113 30.6951 48.9996 30.6365C48.9879 30.5896 48.9645 30.5486 48.9293 30.5134C48.8707 30.49 48.8238 30.4783 48.7887 30.4783C48.7535 30.4783 48.7184 30.4607 48.6832 30.4255C48.6949 30.3201 48.6715 30.2439 48.6129 30.197C48.5543 30.1384 48.525 30.0271 48.525 29.863C48.525 29.7341 48.5309 29.6111 48.5426 29.4939C48.566 29.3767 48.5777 29.2537 48.5777 29.1248C48.5777 29.0193 48.5602 28.9255 48.525 28.8435C48.5016 28.7498 48.4781 28.6501 48.4547 28.5447C48.443 28.4978 48.443 28.4509 48.4547 28.4041C48.4664 28.3572 48.4723 28.3103 48.4723 28.2634C48.4723 28.0525 48.4606 27.8416 48.4371 27.6306C48.4254 27.408 48.4195 27.1912 48.4195 26.9802C48.4195 26.8982 48.4195 26.822 48.4195 26.7517C48.4195 26.6814 48.4254 26.6111 48.4371 26.5408C48.4606 26.4705 48.4781 26.4119 48.4899 26.365C48.5133 26.3181 48.525 26.2595 48.525 26.1892C48.525 25.9666 48.5016 25.7498 48.4547 25.5388C48.4078 25.3162 48.3844 25.0994 48.3844 24.8884C48.3844 24.7712 48.3844 24.6541 48.3844 24.5369C48.3961 24.408 48.402 24.2849 48.402 24.1677C48.402 23.8279 48.3961 23.4939 48.3844 23.1658C48.3727 22.8376 48.3668 22.5095 48.3668 22.1814C48.3668 21.947 48.3727 21.7185 48.3844 21.4958C48.3961 21.2615 48.402 21.0271 48.402 20.7927C48.402 20.4998 48.3902 20.2126 48.3668 19.9314C48.3434 19.6384 48.3317 19.3396 48.3317 19.0349C48.3317 18.9294 48.3258 18.8591 48.3141 18.824C48.3024 18.7888 48.2848 18.7712 48.2613 18.7712C48.2379 18.7595 48.2086 18.7537 48.1734 18.7537C48.15 18.7419 48.1266 18.7185 48.1031 18.6833C48.1031 18.613 48.1324 18.5662 48.191 18.5427C48.2496 18.5076 48.2789 18.408 48.2789 18.2439C48.2789 18.1501 48.2672 18.0564 48.2438 17.9626C48.232 17.8689 48.2262 17.7751 48.2262 17.6814C48.2262 17.5408 48.2555 17.4001 48.3141 17.2595C48.3727 17.1189 48.4254 16.9841 48.4723 16.8552C48.6129 16.8435 48.7067 16.8435 48.7535 16.8552C48.8121 16.8669 48.8707 16.8611 48.9293 16.8376C48.9645 16.9666 49.0406 17.0369 49.1578 17.0486C49.275 17.0486 49.3805 17.0603 49.4742 17.0837C49.5797 17.0955 49.6793 17.1248 49.7731 17.1716C49.8785 17.2068 49.9781 17.2244 50.0719 17.2244C50.0953 17.2947 50.1422 17.3474 50.2125 17.3826C50.2945 17.406 50.3766 17.4294 50.4586 17.4529C50.5524 17.4412 50.6227 17.4001 50.6695 17.3298C50.7281 17.2595 50.8043 17.2244 50.8981 17.2244C50.9684 17.2244 51.0504 17.2771 51.1442 17.3826C51.2379 17.4763 51.3082 17.5525 51.3551 17.6111C51.402 17.6462 51.4899 17.7224 51.6188 17.8396C51.7477 17.9568 51.8883 18.0798 52.0406 18.2087C52.193 18.3259 52.3336 18.4431 52.4625 18.5603C52.5914 18.6658 52.6734 18.7244 52.7086 18.7361C53.1891 19.2166 53.6344 19.656 54.0445 20.0544C54.4664 20.4412 54.9234 20.7927 55.4156 21.1091C55.4274 21.1443 55.4391 21.1736 55.4508 21.197C55.4742 21.2205 55.4977 21.2498 55.5211 21.2849C55.5211 21.3787 55.5035 21.449 55.4684 21.4958C55.4332 21.5427 55.4156 21.6013 55.4156 21.6716C55.4156 21.7068 55.4215 21.7419 55.4332 21.7771C55.4567 21.8123 55.4684 21.8474 55.4684 21.8826C55.4801 21.9294 55.4801 21.9763 55.4684 22.0232C55.4684 22.0583 55.4684 22.0994 55.4684 22.1462C55.4684 22.2634 55.5035 22.3689 55.5738 22.4626C55.6559 22.5564 55.6969 22.6619 55.6969 22.7791C55.6734 22.8845 55.6266 22.949 55.5563 22.9724C55.4859 22.9958 55.4274 23.0251 55.3805 23.0603C55.357 23.0837 55.3336 23.113 55.3102 23.1482C55.2984 23.1833 55.2809 23.2126 55.2574 23.2361C54.9996 23.3533 54.8121 23.4646 54.6949 23.5701C54.5777 23.6638 54.4547 23.7576 54.3258 23.8513C54.2906 23.8748 54.232 23.9158 54.15 23.9744C54.068 24.0212 53.9859 24.074 53.9039 24.1326C53.8219 24.1794 53.7457 24.2322 53.6754 24.2908C53.6168 24.3494 53.5875 24.3962 53.5875 24.4314C53.5875 24.5134 53.6344 24.6306 53.7281 24.783C53.8336 24.9236 53.9098 25.0349 53.9567 25.1169C54.0856 25.3279 54.2027 25.5388 54.3082 25.7498C54.4137 25.949 54.5309 26.1482 54.6598 26.3474C54.8942 26.7107 55.1109 27.0798 55.3102 27.4548C55.5211 27.8298 55.7262 28.2048 55.9254 28.5798ZM53.0602 22.0408C52.7906 21.7009 52.4977 21.3962 52.1813 21.1267C51.8766 20.8455 51.5836 20.5525 51.3024 20.2478L51.109 20.2126C51.0387 20.0955 50.9567 19.9958 50.8629 19.9138C50.7809 19.8201 50.693 19.7263 50.5992 19.6326C50.6109 19.7615 50.6168 19.8845 50.6168 20.0017C50.6168 20.1189 50.6168 20.2419 50.6168 20.3708C50.6168 20.7458 50.6051 21.115 50.5817 21.4783C50.5699 21.8298 50.5641 22.1873 50.5641 22.5505C50.5641 22.9138 50.5817 23.2595 50.6168 23.5876C50.8629 23.5876 51.0856 23.5173 51.2848 23.3767C51.3668 23.3181 51.443 23.2595 51.5133 23.2009C51.5836 23.1306 51.6598 23.0662 51.7418 23.0076C51.8356 22.949 51.941 22.8787 52.0582 22.7966C52.1871 22.7146 52.3102 22.6326 52.4274 22.5505C52.5563 22.4685 52.6734 22.3865 52.7789 22.3044C52.8961 22.2107 52.9899 22.1228 53.0602 22.0408ZM64.1787 17.822C64.0498 18.0564 63.9033 18.3318 63.7392 18.6482C63.5752 18.9646 63.4463 19.24 63.3525 19.4744C63.3174 19.5564 63.2822 19.6384 63.247 19.7205C63.2236 19.7908 63.1943 19.8669 63.1592 19.949C63.1006 20.1248 63.0244 20.2947 62.9306 20.4587C62.8486 20.6111 62.7724 20.7751 62.7021 20.9509C62.5967 21.1853 62.4853 21.4255 62.3681 21.6716C62.2627 21.906 62.1572 22.1521 62.0517 22.4099C61.9345 22.6443 61.8408 22.8494 61.7705 23.0251C61.7119 23.1892 61.6474 23.3591 61.5771 23.5349C61.5068 23.7107 61.4424 23.8865 61.3838 24.0623C61.3369 24.2263 61.2959 24.3787 61.2607 24.5193C61.1552 24.7068 61.0674 24.8474 60.997 24.9412C60.9736 25.1521 60.9502 25.363 60.9267 25.574C60.9033 25.7849 60.8916 26.0017 60.8916 26.2244C60.8916 26.3298 60.8974 26.4353 60.9092 26.5408C60.9326 26.6345 60.9502 26.7341 60.9619 26.8396C60.9736 26.9919 60.9736 27.1443 60.9619 27.2966C60.9619 27.4373 60.9677 27.5837 60.9795 27.7361C60.9912 28.0291 61.0029 28.322 61.0146 28.615C61.0381 28.8962 61.0556 29.1892 61.0674 29.4939C61.0791 29.7048 61.0674 29.8865 61.0322 30.0388C61.0088 30.1794 61.0029 30.3259 61.0146 30.4783C60.9795 30.5017 60.9384 30.5193 60.8916 30.531C60.8564 30.5427 60.8213 30.5603 60.7861 30.5837C60.6572 30.5837 60.5693 30.5779 60.5224 30.5662C60.4873 30.5662 60.4521 30.5779 60.417 30.6013C60.3115 30.531 60.2529 30.4958 60.2412 30.4958C60.2295 30.5076 60.2177 30.5134 60.206 30.5134C60.0654 30.4666 59.9892 30.4314 59.9775 30.408C59.9658 30.3845 59.9424 30.3611 59.9072 30.3376C59.7783 30.3376 59.6728 30.3552 59.5908 30.3904C59.5556 30.3669 59.5263 30.3435 59.5029 30.3201C59.4795 30.2966 59.4502 30.2732 59.415 30.2498C59.3095 30.238 59.2217 30.2263 59.1513 30.2146C59.081 30.1912 59.0224 30.1677 58.9756 30.1443C58.9404 30.0505 58.8994 29.9685 58.8525 29.8982C58.8174 29.8279 58.7998 29.7341 58.7998 29.6169C58.7998 29.5232 58.8115 29.4353 58.8349 29.3533C58.8584 29.2712 58.8759 29.1833 58.8877 29.0896C58.8877 29.031 58.8818 28.9783 58.8701 28.9314C58.8701 28.8845 58.8701 28.8318 58.8701 28.7732C58.8701 28.7146 58.8818 28.6384 58.9052 28.5447C58.8701 28.2751 58.8525 27.9939 58.8525 27.7009C58.8642 27.3962 58.8701 27.1091 58.8701 26.8396C58.8701 26.5701 58.8467 26.3181 58.7998 26.0837C58.8115 25.9314 58.8115 25.8259 58.7998 25.7673C58.7881 25.697 58.7822 25.6267 58.7822 25.5564C58.7822 25.4978 58.7881 25.4392 58.7998 25.3806C58.8115 25.3103 58.8174 25.2458 58.8174 25.1873C58.8174 25.1755 58.8056 25.1169 58.7822 25.0115C58.7705 24.8943 58.7529 24.7771 58.7295 24.6599C58.706 24.531 58.6826 24.4138 58.6592 24.3083C58.6357 24.1912 58.624 24.1208 58.624 24.0974C58.5068 23.8865 58.4189 23.6873 58.3603 23.4998C58.3017 23.3123 58.2373 23.1541 58.167 23.0251C58.1201 22.9314 58.0732 22.8376 58.0263 22.7439C57.9795 22.6501 57.9384 22.5505 57.9033 22.4451C57.8799 22.3865 57.8564 22.322 57.833 22.2517C57.8213 22.1814 57.8037 22.1169 57.7802 22.0583C57.7334 21.9646 57.6865 21.865 57.6396 21.7595C57.6045 21.6423 57.5576 21.5486 57.499 21.4783C57.4521 21.3728 57.4052 21.2791 57.3584 21.197C57.3232 21.1033 57.3056 21.0154 57.3056 20.9333C57.2705 20.7927 57.2119 20.6697 57.1299 20.5642C57.0595 20.447 56.9951 20.3298 56.9365 20.2126C56.9013 20.1423 56.872 20.0779 56.8486 20.0193C56.8369 19.9607 56.8193 19.9021 56.7959 19.8435C56.7724 19.7966 56.7373 19.738 56.6904 19.6677C56.6552 19.5974 56.6142 19.5447 56.5674 19.5095C56.5439 19.4041 56.5029 19.3103 56.4443 19.2283C56.3857 19.1462 56.3447 19.0525 56.3213 18.947C56.2627 18.865 56.1982 18.783 56.1279 18.7009C56.081 18.5251 56.0166 18.3669 55.9345 18.2263C55.8525 18.074 55.7763 17.9158 55.706 17.7517C55.7529 17.5056 55.8877 17.3533 56.1103 17.2947C56.2275 17.1541 56.2978 17.0779 56.3213 17.0662C56.3447 17.0544 56.3974 17.0486 56.4795 17.0486C56.5498 16.99 56.6201 16.9431 56.6904 16.908C56.7607 16.8611 56.8427 16.8494 56.9365 16.8728C56.9482 16.8259 56.9775 16.7849 57.0244 16.7498C57.083 16.7146 57.1357 16.697 57.1826 16.697C57.2529 16.697 57.3115 16.7322 57.3584 16.8025C57.417 16.8728 57.4756 16.9255 57.5342 16.9607C57.6279 17.1248 57.7217 17.283 57.8154 17.4353C57.9209 17.5876 58.0088 17.7458 58.0791 17.9099C58.1611 18.074 58.2314 18.238 58.29 18.4021C58.3603 18.5662 58.4599 18.7244 58.5888 18.8767C58.6474 19.1111 58.7353 19.3337 58.8525 19.5447C58.9814 19.7439 59.0869 19.9607 59.1689 20.1951C59.2275 20.3357 59.292 20.4763 59.3623 20.6169C59.4443 20.7458 59.5146 20.8865 59.5732 21.0388C59.6084 21.1091 59.6377 21.1794 59.6611 21.2498C59.6845 21.3201 59.708 21.3904 59.7314 21.4607C59.7549 21.5193 59.7783 21.5955 59.8017 21.6892C59.8252 21.783 59.8545 21.8591 59.8896 21.9177C59.9717 21.8357 60.042 21.7302 60.1006 21.6013C60.1826 21.4373 60.2646 21.2849 60.3467 21.1443C60.4404 20.9919 60.5224 20.8337 60.5927 20.6697C60.6865 20.5173 60.7509 20.3591 60.7861 20.1951C60.833 20.031 60.8857 19.8669 60.9443 19.7029C60.9677 19.6443 60.9912 19.5857 61.0146 19.5271C61.0498 19.4685 61.0791 19.4041 61.1025 19.3337C61.1377 19.2634 61.167 19.1931 61.1904 19.1228C61.2138 19.0525 61.2373 18.9822 61.2607 18.9119C61.3427 18.6892 61.4306 18.4724 61.5244 18.2615C61.6299 18.0388 61.7353 17.8162 61.8408 17.5935C61.8525 17.5583 61.8759 17.5056 61.9111 17.4353C61.958 17.365 62.0049 17.2947 62.0517 17.2244C62.1103 17.1423 62.1631 17.072 62.2099 17.0134C62.2568 16.9548 62.2978 16.9138 62.333 16.8904C62.3564 16.8669 62.3916 16.8552 62.4384 16.8552C62.497 16.8435 62.5439 16.8318 62.5791 16.8201C62.6845 16.8201 62.7607 16.8494 62.8076 16.908C62.9482 16.9666 63.0537 17.0076 63.124 17.031C63.1943 17.0544 63.247 17.1072 63.2822 17.1892C63.458 17.3064 63.5869 17.3767 63.6689 17.4001C63.7627 17.4119 63.833 17.4587 63.8799 17.5408C64.0088 17.6228 64.0849 17.6814 64.1084 17.7166C64.1318 17.7517 64.1552 17.7869 64.1787 17.822ZM66.139 17.488C66.1859 17.4763 66.2269 17.4587 66.262 17.4353C66.2972 17.4119 66.3382 17.4001 66.3851 17.4001C66.4202 17.4119 66.4437 17.4353 66.4554 17.4705C66.4788 17.5056 66.5081 17.5349 66.5433 17.5583C66.5784 17.5349 66.6077 17.5115 66.6312 17.488C66.6663 17.4646 66.7015 17.447 66.7367 17.4353C66.8538 17.4705 66.9183 17.5291 66.93 17.6111C66.9886 17.6345 67.0413 17.6638 67.0882 17.699C67.1351 17.7224 67.1878 17.74 67.2464 17.7517C67.2699 17.7986 67.2992 17.8337 67.3343 17.8572C67.3695 17.8806 67.4105 17.9158 67.4574 17.9626C67.5745 17.9861 67.7269 18.0505 67.9144 18.156C68.1136 18.2615 68.2718 18.3435 68.389 18.4021C68.5062 18.4607 68.6234 18.5193 68.7406 18.5779C68.8577 18.6365 68.9691 18.7009 69.0745 18.7712C69.18 18.8298 69.2855 18.9001 69.3909 18.9822C69.4964 19.0525 69.6077 19.1111 69.7249 19.158C69.8304 19.2869 69.9652 19.3689 70.1292 19.4041C70.2933 19.4392 70.4398 19.5037 70.5687 19.5974C70.6742 19.656 70.7738 19.7205 70.8675 19.7908C70.9613 19.8494 71.055 19.908 71.1488 19.9666C71.1839 20.0251 71.2249 20.072 71.2718 20.1072C71.3304 20.1423 71.3831 20.1892 71.43 20.2478C71.6644 20.3767 71.7992 20.4763 71.8343 20.5466C71.8695 20.5701 71.9222 20.6052 71.9925 20.6521C72.0628 20.699 72.1331 20.7517 72.2034 20.8103C72.2738 20.8572 72.3382 20.9099 72.3968 20.9685C72.4554 21.0154 72.4906 21.0623 72.5023 21.1091C72.4554 21.2146 72.432 21.3025 72.432 21.3728C72.432 21.4314 72.4085 21.4841 72.3617 21.531C72.432 21.6248 72.4671 21.7126 72.4671 21.7947C72.4085 21.9353 72.3089 22.0525 72.1683 22.1462C72.1331 22.24 72.0745 22.3162 71.9925 22.3748C71.9222 22.4216 71.8753 22.4919 71.8519 22.5857C71.7581 22.6443 71.6995 22.6912 71.6761 22.7263C71.6644 22.7615 71.6468 22.7966 71.6234 22.8318C71.4007 23.0662 71.1898 23.2712 70.9906 23.447C70.8031 23.6111 70.6273 23.7927 70.4632 23.9919C70.346 24.0505 70.2464 24.1267 70.1644 24.2205C70.0824 24.3025 70.0062 24.3962 69.9359 24.5017C69.8421 24.5955 69.7484 24.6892 69.6546 24.783C69.5726 24.865 69.4847 24.947 69.3909 25.0291C69.3675 25.0759 69.3265 25.1169 69.2679 25.1521C69.221 25.1755 69.1859 25.2166 69.1624 25.2751C69.0335 25.3337 68.9281 25.4158 68.846 25.5212C68.764 25.6267 68.6644 25.7146 68.5472 25.7849L68.4242 25.9607C68.389 25.9841 68.3363 26.0251 68.2659 26.0837C68.2074 26.1306 68.1429 26.1892 68.0726 26.2595C68.014 26.3181 67.9613 26.3767 67.9144 26.4353C67.8675 26.4939 67.8382 26.5408 67.8265 26.5759C67.7913 26.5876 67.7327 26.6228 67.6507 26.6814C67.5804 26.74 67.5042 26.8044 67.4222 26.8748C67.3519 26.9451 67.2816 27.0154 67.2113 27.0857C67.1527 27.156 67.1175 27.2029 67.1058 27.2263L66.93 27.3494C66.9417 27.6658 66.9476 27.988 66.9476 28.3162C66.9593 28.6326 66.9652 28.949 66.9652 29.2654V29.863L66.8421 30.0212C66.7835 30.0212 66.7367 30.0095 66.7015 29.9861C66.6663 29.9626 66.6253 29.9509 66.5784 29.9509C66.5316 29.9509 66.4847 29.9744 66.4378 30.0212C66.4027 30.0681 66.3675 30.1033 66.3324 30.1267C66.2503 30.1384 66.18 30.1619 66.1214 30.197C66.0745 30.2205 66.0218 30.2439 65.9632 30.2673C65.8929 30.2322 65.8226 30.2146 65.7523 30.2146C65.5999 30.2498 65.5238 30.2556 65.5238 30.2322C65.5355 30.2087 65.512 30.197 65.4534 30.197C65.3597 30.2908 65.3011 30.3376 65.2777 30.3376C65.2308 30.3376 65.1839 30.3435 65.137 30.3552C65.1019 30.3669 65.0609 30.3728 65.014 30.3728C64.9671 30.2791 64.9261 30.1853 64.8909 30.0916C64.8675 29.9861 64.8148 29.8865 64.7327 29.7927C64.7679 29.6755 64.762 29.5935 64.7152 29.5466C64.7855 29.4177 64.8148 29.2712 64.8031 29.1072C64.7913 28.9431 64.7855 28.7908 64.7855 28.6501C64.7855 28.5681 64.7855 28.4919 64.7855 28.4216C64.7972 28.3396 64.8031 28.2634 64.8031 28.1931C64.8031 28.0525 64.7913 27.9119 64.7679 27.7712C64.7445 27.6189 64.7327 27.4666 64.7327 27.3142C64.7327 26.9626 64.7445 26.6111 64.7679 26.2595C64.7913 25.8962 64.8031 25.5388 64.8031 25.1873C64.8031 24.988 64.7913 24.783 64.7679 24.572C64.7562 24.3611 64.7503 24.156 64.7503 23.9568C64.7503 23.8279 64.7562 23.7107 64.7679 23.6052C64.7796 23.488 64.7913 23.3767 64.8031 23.2712C64.8031 22.7322 64.8089 22.2166 64.8206 21.7244C64.8441 21.2205 64.8558 20.7224 64.8558 20.2302C64.8558 20.0662 64.8499 19.9138 64.8382 19.7732C64.8382 19.6208 64.8382 19.4626 64.8382 19.2986C64.8382 19.2166 64.8441 19.1345 64.8558 19.0525C64.8675 18.9705 64.8734 18.8884 64.8734 18.8064C64.9085 18.4431 64.9261 18.0798 64.9261 17.7166L64.9085 17.4353C64.9554 17.365 65.0257 17.3298 65.1195 17.3298C65.2484 17.3298 65.348 17.3708 65.4183 17.4529C65.5003 17.4412 65.5765 17.4294 65.6468 17.4177C65.7288 17.3943 65.805 17.3826 65.8753 17.3826C65.9808 17.3826 66.0687 17.4177 66.139 17.488ZM67.1761 20.283C67.1761 20.3416 67.1702 20.3884 67.1585 20.4236C67.1468 20.447 67.1351 20.4705 67.1234 20.4939C67.1234 20.5291 67.1234 20.5701 67.1234 20.6169C67.1351 20.6521 67.1409 20.6931 67.1409 20.74C67.1409 21.0095 67.1351 21.2791 67.1234 21.5486C67.1234 21.8064 67.1234 22.0642 67.1234 22.322L67.0882 23.2537C67.0882 23.3123 67.0941 23.3767 67.1058 23.447C67.1175 23.5173 67.1234 23.5818 67.1234 23.6404C67.1234 23.699 67.1175 23.7576 67.1058 23.8162C67.0941 23.8748 67.0882 23.9333 67.0882 23.9919C67.0882 24.1443 67.1058 24.2966 67.1409 24.449C67.1995 24.4255 67.2406 24.3904 67.264 24.3435C67.2874 24.2849 67.3167 24.238 67.3519 24.2029C67.6214 23.9568 67.8734 23.699 68.1077 23.4294C68.3421 23.1599 68.5824 22.8904 68.8284 22.6208C69.0394 22.3982 69.221 22.2166 69.3734 22.0759C69.5257 21.9353 69.6429 21.7654 69.7249 21.5662C69.5257 21.4373 69.3206 21.3083 69.1097 21.1794C68.8988 21.0388 68.6761 20.9216 68.4417 20.8279C68.43 20.8044 68.3949 20.7751 68.3363 20.74C68.2894 20.7048 68.2367 20.6755 68.1781 20.6521C68.1195 20.6169 68.0609 20.5876 68.0023 20.5642C67.9437 20.5408 67.9027 20.5291 67.8792 20.5291C67.7738 20.4353 67.6624 20.3767 67.5452 20.3533C67.4632 20.3533 67.3929 20.3416 67.3343 20.3181C67.2757 20.283 67.2347 20.2537 67.2113 20.2302L67.1761 20.283ZM80.2985 17.699C80.2751 17.7458 80.2634 17.7927 80.2634 17.8396C80.2751 17.8865 80.2809 17.9392 80.2809 17.9978C80.2575 18.1384 80.2575 18.2087 80.2809 18.2087C80.3044 18.2087 80.3161 18.2205 80.3161 18.2439L80.1931 18.4197C80.1931 18.49 80.1755 18.5544 80.1403 18.613C80.1169 18.6716 80.111 18.7419 80.1227 18.824C80.0876 18.8826 80.0524 18.9412 80.0173 18.9998C79.9938 19.0583 79.9528 19.1169 79.8942 19.1755H79.6657C79.5368 19.1755 79.3962 19.1873 79.2438 19.2107C79.1032 19.2224 78.9626 19.2283 78.822 19.2283C78.7985 19.2283 78.7692 19.2283 78.7341 19.2283C78.6989 19.2166 78.6638 19.2107 78.6286 19.2107C78.6052 19.2107 78.5759 19.2166 78.5407 19.2283C78.5056 19.2283 78.4645 19.2283 78.4177 19.2283C78.2419 19.2283 78.0661 19.2224 77.8903 19.2107C77.7263 19.1873 77.5505 19.1755 77.363 19.1755C77.3161 19.1755 77.2692 19.1755 77.2224 19.1755C77.1755 19.1755 77.1227 19.1814 77.0641 19.1931C77.0524 19.3923 77.0407 19.5974 77.029 19.8083C77.029 20.0076 77.029 20.2126 77.029 20.4236C77.029 20.4822 77.0231 20.5466 77.0114 20.6169C76.9997 20.6755 76.9938 20.7341 76.9938 20.7927C76.9821 20.9451 76.9704 21.0916 76.9587 21.2322C76.9587 21.3728 76.9587 21.5193 76.9587 21.6716C76.9587 21.9998 76.9587 22.3279 76.9587 22.656C76.9704 22.9841 76.9821 23.3181 76.9938 23.658C77.0056 23.8337 77.0173 24.0037 77.029 24.1677C77.0407 24.3318 77.0466 24.5017 77.0466 24.6775C77.0466 25.0759 77.0407 25.4744 77.029 25.8728C77.0173 26.2595 77.0114 26.6521 77.0114 27.0505C77.0114 27.1794 77.0056 27.3025 76.9938 27.4197C76.9821 27.5251 76.9763 27.6423 76.9763 27.7712C76.9763 28.0408 76.9821 28.3103 76.9938 28.5798C77.0056 28.8494 77.0114 29.1189 77.0114 29.3884C77.0114 29.5173 77.0056 29.6462 76.9938 29.7751C76.9938 29.9041 76.9938 30.033 76.9938 30.1619C76.9352 30.2556 76.8942 30.3376 76.8708 30.408C76.8474 30.4783 76.777 30.5134 76.6599 30.5134C76.5778 30.49 76.5368 30.4607 76.5368 30.4255C76.5485 30.4021 76.5427 30.3787 76.5192 30.3552C76.4138 30.3435 76.3317 30.3494 76.2731 30.3728C76.2263 30.408 76.1677 30.4373 76.0974 30.4607C76.0622 30.449 76.0212 30.4431 75.9743 30.4431C75.9391 30.4431 75.904 30.4431 75.8688 30.4431C75.8454 30.4431 75.822 30.449 75.7985 30.4607C75.7751 30.4841 75.7224 30.4958 75.6403 30.4958C75.57 30.5076 75.529 30.4958 75.5173 30.4607C75.5056 30.4255 75.4704 30.408 75.4118 30.408C75.3532 30.4431 75.2829 30.4666 75.2009 30.4783C75.1306 30.5017 75.0602 30.5134 74.9899 30.5134C74.9196 30.4666 74.8845 30.4197 74.8845 30.3728C74.8962 30.3376 74.8903 30.2966 74.8669 30.2498C74.8552 30.2263 74.8317 30.197 74.7966 30.1619C74.7731 30.115 74.7497 30.0798 74.7263 30.0564C74.7497 29.8923 74.7673 29.7458 74.779 29.6169C74.7907 29.488 74.7966 29.3474 74.7966 29.1951C74.7966 28.8904 74.7849 28.5916 74.7614 28.2986C74.738 28.0056 74.7263 27.7068 74.7263 27.4021C74.7263 27.3083 74.738 27.2087 74.7614 27.1033C74.7849 26.9978 74.7966 26.8865 74.7966 26.7693C74.7731 26.6755 74.7673 26.6228 74.779 26.6111C74.7907 26.5876 74.7966 26.5642 74.7966 26.5408C74.7966 26.4705 74.7907 26.4001 74.779 26.3298C74.779 26.2595 74.779 26.1892 74.779 26.1189C74.779 25.9783 74.779 25.8376 74.779 25.697C74.7907 25.5564 74.7966 25.4158 74.7966 25.2751C74.7966 25.2166 74.7907 25.158 74.779 25.0994C74.779 25.0291 74.779 24.9646 74.779 24.906C74.7673 24.8005 74.7614 24.6892 74.7614 24.572C74.7731 24.4548 74.779 24.3376 74.779 24.2205C74.779 23.658 74.7673 23.1013 74.7438 22.5505C74.7321 21.9998 74.7263 21.4431 74.7263 20.8806C74.7263 20.5994 74.738 20.324 74.7614 20.0544C74.7966 19.7732 74.8141 19.4919 74.8141 19.2107C74.8141 19.1755 74.8024 19.1287 74.779 19.0701C74.7556 19.0115 74.7321 18.9705 74.7087 18.947C74.6501 18.947 74.5915 18.947 74.5329 18.947C74.486 18.9353 74.4333 18.9294 74.3747 18.9294C74.2458 18.9294 74.1227 18.947 74.0056 18.9822C73.7829 18.9939 73.5661 19.0115 73.3552 19.0349C73.1559 19.0466 72.9509 19.0583 72.7399 19.0701C72.5993 19.0583 72.5114 19.0583 72.4763 19.0701C72.4528 19.0701 72.4235 19.0701 72.3884 19.0701C72.2946 19.0701 72.2243 19.0466 72.1774 18.9998V18.7712C72.1071 18.6306 72.0778 18.5544 72.0895 18.5427C72.1013 18.531 72.1071 18.5134 72.1071 18.49C72.1071 18.4548 72.0778 18.4197 72.0192 18.3845C71.9489 18.3376 71.9138 18.2673 71.9138 18.1736C71.902 18.0798 71.8786 18.0095 71.8434 17.9626C71.8083 17.9158 71.7907 17.8689 71.7907 17.822C71.7907 17.74 71.8083 17.6462 71.8434 17.5408C71.9489 17.4822 72.0485 17.4412 72.1423 17.4177C72.2477 17.3943 72.3649 17.365 72.4938 17.3298C72.5641 17.3064 72.6286 17.283 72.6872 17.2595C72.7458 17.2361 72.8102 17.2185 72.8806 17.2068C72.9626 17.1951 73.0446 17.1892 73.1266 17.1892C73.2087 17.1892 73.2907 17.1833 73.3727 17.1716C73.5485 17.1365 73.7302 17.1072 73.9177 17.0837C74.1169 17.0603 74.3044 17.0486 74.4802 17.0486C74.6442 17.0486 74.8083 17.072 74.9724 17.1189C75.1364 17.1541 75.2829 17.1716 75.4118 17.1716C75.5993 17.1716 75.7751 17.1833 75.9391 17.2068C76.1149 17.2302 76.2966 17.2419 76.4841 17.2419C76.5075 17.2419 76.5427 17.2537 76.5895 17.2771C76.6481 17.2888 76.7126 17.2947 76.7829 17.2947H78.488C78.5817 17.3181 78.6462 17.324 78.6813 17.3123C78.7282 17.3005 78.7692 17.2947 78.8044 17.2947C78.8981 17.2947 78.986 17.3005 79.0681 17.3123C79.1501 17.324 79.238 17.3298 79.3317 17.3298C79.4138 17.3298 79.4782 17.324 79.5251 17.3123C79.6188 17.324 79.7067 17.3533 79.7888 17.4001C79.8708 17.4353 79.9645 17.4529 80.07 17.4529C80.1169 17.488 80.152 17.5349 80.1755 17.5935C80.1989 17.6404 80.2399 17.6755 80.2985 17.699ZM83.6299 18.3142C83.6299 18.4197 83.5948 18.5017 83.5245 18.5603C83.4542 18.6072 83.3897 18.6716 83.3311 18.7537C83.2139 18.8591 83.1084 18.9705 83.0147 19.0876C82.9327 19.1931 82.8331 19.2986 82.7159 19.4041C82.669 19.4509 82.6045 19.5154 82.5225 19.5974C82.4405 19.6677 82.3526 19.7439 82.2588 19.8259C82.1768 19.8962 82.0889 19.9607 81.9952 20.0193C81.9131 20.0779 81.8428 20.1072 81.7842 20.1072C81.6905 20.1072 81.5674 20.0779 81.4151 20.0193C81.2745 19.949 81.1514 19.9021 81.0459 19.8787C80.9639 19.8669 80.8877 19.8611 80.8174 19.8611C80.7588 19.8494 80.7002 19.8142 80.6417 19.7556C80.4307 19.7087 80.2959 19.6384 80.2374 19.5447C80.1788 19.4392 80.1143 19.3337 80.044 19.2283C80.044 19.1814 80.0616 19.1521 80.0967 19.1404C80.1319 19.1287 80.1612 19.1052 80.1846 19.0701C80.3018 18.9177 80.4014 18.7947 80.4834 18.7009C80.5655 18.5955 80.6592 18.49 80.7647 18.3845C80.9639 18.2087 81.1514 18.0271 81.3272 17.8396C81.5147 17.6521 81.7081 17.4763 81.9073 17.3123C82.001 17.3005 82.0713 17.2654 82.1182 17.2068C82.1651 17.1482 82.2354 17.1189 82.3292 17.1189C82.4229 17.1189 82.4991 17.1482 82.5577 17.2068C82.628 17.2654 82.6866 17.3357 82.7334 17.4177C82.792 17.488 82.8448 17.5642 82.8917 17.6462C82.9502 17.7166 83.0147 17.7693 83.085 17.8044C83.167 17.863 83.2784 17.9392 83.419 18.033C83.5596 18.1267 83.6299 18.2205 83.6299 18.3142ZM81.2217 21.5837C81.3038 21.6306 81.3624 21.6951 81.3975 21.7771C81.4444 21.8474 81.5088 21.9001 81.5909 21.9353C81.6612 21.9705 81.7374 21.988 81.8194 21.988C81.9014 21.988 81.9717 21.9998 82.0303 22.0232C82.0772 22.0466 82.1124 22.0759 82.1358 22.1111C82.1592 22.1462 82.1827 22.1814 82.2061 22.2166C82.2764 22.2751 82.3819 22.3279 82.5225 22.3748C82.6749 22.4216 82.7745 22.4744 82.8213 22.533C82.9034 22.6384 82.962 22.7732 82.9971 22.9373C83.044 23.1013 83.0792 23.2771 83.1026 23.4646C83.126 23.6404 83.1436 23.822 83.1553 24.0095C83.167 24.1853 83.1846 24.3376 83.2081 24.4666C83.2315 24.7361 83.2608 25.0056 83.2959 25.2751C83.3311 25.533 83.3487 25.7966 83.3487 26.0662C83.3487 26.3357 83.337 26.6111 83.3135 26.8923C83.2901 27.1736 83.2784 27.449 83.2784 27.7185C83.2784 27.8591 83.2725 28.0349 83.2608 28.2458C83.2608 28.4568 83.2139 28.6208 83.1202 28.738C83.1084 28.7849 83.1026 28.8669 83.1026 28.9841V29.5466C83.1026 29.6169 83.1084 29.6873 83.1202 29.7576C83.1319 29.8279 83.1377 29.9041 83.1377 29.9861C83.1377 30.115 83.1026 30.2087 83.0323 30.2673C82.9971 30.2556 82.9561 30.2498 82.9092 30.2498C82.8741 30.2498 82.8389 30.2498 82.8038 30.2498C82.6749 30.2498 82.5811 30.2732 82.5225 30.3201C82.3936 30.3083 82.2706 30.2966 82.1534 30.2849C82.0362 30.2732 81.9131 30.2673 81.7842 30.2673C81.585 30.2673 81.3682 30.2966 81.1338 30.3552C81.087 30.238 81.0635 30.115 81.0635 29.9861C81.0752 29.8572 81.0518 29.74 80.9932 29.6345C80.9815 29.5994 80.9698 29.5701 80.9581 29.5466C80.9581 29.5115 80.9581 29.4763 80.9581 29.4412C80.9932 29.3005 81.0108 29.2068 81.0108 29.1599C81.0108 29.1013 81.0108 29.0427 81.0108 28.9841C81.0108 28.8201 81.0049 28.656 80.9932 28.4919C80.9815 28.3162 80.9874 28.1462 81.0108 27.9822C81.0108 27.9236 81.0167 27.8708 81.0284 27.824C81.0518 27.7771 81.0635 27.7244 81.0635 27.6658C81.0635 27.6072 81.0518 27.5662 81.0284 27.5427C81.0049 27.5193 80.9932 27.49 80.9932 27.4548C80.9932 27.4197 80.9932 27.3611 80.9932 27.2791C81.0049 27.197 81.0225 27.1443 81.0459 27.1208C81.0459 27.0271 81.0459 26.9392 81.0459 26.8572C81.0577 26.7634 81.0635 26.6755 81.0635 26.5935C81.0635 26.406 81.0577 26.2185 81.0459 26.031C81.0342 25.8435 81.0284 25.6619 81.0284 25.4861C81.0284 25.4041 81.0225 25.3513 81.0108 25.3279C80.9991 25.3044 80.9874 25.2869 80.9756 25.2751C80.9639 25.2634 80.9463 25.2576 80.9229 25.2576C80.8995 25.2458 80.8819 25.2224 80.8702 25.1873C80.917 24.6716 80.8995 24.156 80.8174 23.6404C80.7354 23.1248 80.6944 22.6033 80.6944 22.0759C80.6944 21.9939 80.7061 21.9353 80.7295 21.9001C80.753 21.8533 80.7823 21.8181 80.8174 21.7947C80.8526 21.7712 80.8819 21.7478 80.9053 21.7244C80.9405 21.6892 80.9639 21.6423 80.9756 21.5837C81.0694 21.6072 81.1514 21.6072 81.2217 21.5837ZM87.9457 25.4685C87.9692 25.5271 88.057 25.656 88.2094 25.8552C88.3617 26.0427 88.5317 26.2537 88.7192 26.488C88.9184 26.7107 89.1117 26.9275 89.2992 27.1384C89.4867 27.3494 89.6156 27.5017 89.6859 27.5955C89.9086 27.9236 90.1371 28.2458 90.3715 28.5623C90.6059 28.8787 90.8285 29.2068 91.0395 29.5466C91.0981 29.6052 91.1449 29.6814 91.1801 29.7751C91.2152 29.8572 91.2328 29.9451 91.2328 30.0388C91.2328 30.1443 91.2035 30.2029 91.1449 30.2146C91.0981 30.2146 91.0453 30.2263 90.9867 30.2498C90.8695 30.3318 90.7641 30.3787 90.6703 30.3904C90.5766 30.4021 90.5004 30.408 90.4418 30.408C90.3129 30.408 90.1723 30.4021 90.0199 30.3904C89.8676 30.3904 89.7387 30.4021 89.6332 30.4255C89.5981 30.4373 89.557 30.4548 89.5102 30.4783C89.4633 30.5134 89.4281 30.531 89.4047 30.531C89.3109 30.531 89.2406 30.5134 89.1938 30.4783C89.1586 30.4548 89.1059 30.4314 89.0356 30.408C88.9418 30.3025 88.8539 30.1912 88.7719 30.074C88.7016 29.9568 88.6254 29.8396 88.5434 29.7224C88.4731 29.6404 88.3969 29.5701 88.3149 29.5115C88.2328 29.4412 88.1567 29.3591 88.0863 29.2654C87.8988 28.9958 87.7055 28.738 87.5063 28.4919C87.3188 28.2458 87.1254 27.9998 86.9262 27.7537C86.8324 27.6248 86.727 27.5017 86.6098 27.3845C86.5043 27.2673 86.4047 27.1501 86.3109 27.033C86.2172 26.9041 86.1293 26.7693 86.0473 26.6287C85.9652 26.488 85.8774 26.3533 85.7836 26.2244C85.7133 26.1072 85.6137 25.9666 85.4848 25.8025C85.3559 25.6267 85.2211 25.4509 85.0805 25.2751C84.9399 25.0994 84.7934 24.9353 84.641 24.783C84.5004 24.6189 84.3774 24.4958 84.2719 24.4138C84.2719 24.3318 84.2484 24.2732 84.2016 24.238C84.1547 24.2029 84.102 24.1619 84.0434 24.115C84.0199 24.0564 83.9906 24.0037 83.9555 23.9568C83.9203 23.8982 83.9027 23.8337 83.9027 23.7634C83.9027 23.7166 83.9086 23.6755 83.9203 23.6404C83.932 23.6052 83.9438 23.5701 83.9555 23.5349C83.9789 23.488 83.9906 23.447 83.9906 23.4119C84.0024 23.365 84.0199 23.3181 84.0434 23.2712C84.102 23.1189 84.184 22.9841 84.2895 22.8669C84.4067 22.7498 84.4945 22.615 84.5531 22.4626C84.5649 22.4158 84.5707 22.3748 84.5707 22.3396C84.5707 22.2927 84.5824 22.2458 84.6059 22.199C84.641 22.1287 84.6938 22.0583 84.7641 21.988C84.8344 21.9177 84.8988 21.8416 84.9574 21.7595C85.016 21.6541 85.0746 21.5486 85.1332 21.4431C85.1918 21.3376 85.2504 21.2322 85.309 21.1267C85.4731 20.8572 85.6547 20.5994 85.8539 20.3533C86.0531 20.0955 86.2406 19.8435 86.4164 19.5974C86.5805 19.363 86.7328 19.1345 86.8734 18.9119C87.0141 18.6775 87.1664 18.4431 87.3305 18.2087C87.4125 18.0916 87.5063 17.9626 87.6117 17.822C87.7172 17.6697 87.8227 17.5232 87.9281 17.3826C88.0453 17.2419 88.1625 17.113 88.2797 16.9958C88.3969 16.8669 88.5141 16.7732 88.6313 16.7146C88.8305 16.6912 88.9594 16.7263 89.018 16.8201C89.0766 16.9021 89.1586 16.9431 89.2641 16.9431C89.4281 16.9783 89.5395 17.031 89.5981 17.1013C89.6567 17.1716 89.7152 17.2361 89.7738 17.2947C89.9262 17.2947 90.0551 17.324 90.1606 17.3826C90.266 17.4412 90.3715 17.5291 90.477 17.6462C90.4301 17.7751 90.3656 17.8923 90.2836 17.9978C90.2133 18.1033 90.1488 18.2146 90.0902 18.3318C89.9965 18.3669 89.9262 18.4255 89.8793 18.5076C89.8442 18.5896 89.7856 18.6599 89.7035 18.7185C89.5746 18.9177 89.4457 19.1169 89.3168 19.3162C89.1879 19.5037 89.059 19.6853 88.9301 19.8611C88.8715 19.9314 88.8012 19.99 88.7192 20.0369C88.6488 20.072 88.5902 20.1306 88.5434 20.2126C88.5199 20.2478 88.5024 20.2888 88.4906 20.3357C88.4789 20.3708 88.4613 20.406 88.4379 20.4412C88.2973 20.6638 88.1391 20.8806 87.9633 21.0916C87.7875 21.3025 87.6352 21.5251 87.5063 21.7595C87.4477 21.8416 87.4008 21.9294 87.3656 22.0232C87.3305 22.1052 87.2895 22.1873 87.2426 22.2693C87.1957 22.3396 87.1254 22.4392 87.0317 22.5681C86.9496 22.697 86.8617 22.8318 86.768 22.9724C86.6859 23.1013 86.6098 23.2302 86.5395 23.3591C86.4809 23.4763 86.4516 23.5759 86.4516 23.658C86.4633 23.7166 86.5395 23.8337 86.6801 24.0095C86.8207 24.1853 86.9731 24.3728 87.1371 24.572C87.3129 24.7712 87.477 24.9587 87.6293 25.1345C87.7934 25.3103 87.8988 25.4216 87.9457 25.4685Z" fill="white"/>
</svg>
