<svg width="88" height="39" viewBox="0 0 88 39" fill="none" xmlns="http://www.w3.org/2000/svg">
<rect x="19.291" y="0.232422" width="12.8" height="12.8" transform="rotate(45 19.291 0.232422)" fill="white"/>
<rect x="9.05078" y="10.4727" width="12.8" height="12.8" transform="rotate(45 9.05078 10.4727)" fill="white"/>
<rect x="19.291" y="20.6655" width="12.8" height="12.8" transform="rotate(45 19.291 20.6655)" fill="white"/>
<path d="M40.2969 21.7012C40.3203 21.7598 40.4082 21.8887 40.5605 22.0879C40.7129 22.2754 40.8828 22.4863 41.0703 22.7207C41.2695 22.9434 41.4629 23.1602 41.6504 23.3711C41.8379 23.582 41.9668 23.7344 42.0371 23.8281C42.2598 24.1562 42.4883 24.4785 42.7227 24.7949C42.957 25.1113 43.1797 25.4395 43.3906 25.7793C43.4492 25.8379 43.4961 25.9141 43.5312 26.0078C43.5664 26.0898 43.584 26.1777 43.584 26.2715C43.584 26.377 43.5547 26.4355 43.4961 26.4473C43.4492 26.4473 43.3965 26.459 43.3379 26.4824C43.2207 26.5645 43.1152 26.6113 43.0215 26.623C42.9277 26.6348 42.8516 26.6406 42.793 26.6406C42.6641 26.6406 42.5234 26.6348 42.3711 26.623C42.2188 26.623 42.0898 26.6348 41.9844 26.6582C41.9492 26.6699 41.9082 26.6875 41.8613 26.7109C41.8145 26.7461 41.7793 26.7637 41.7559 26.7637C41.6621 26.7637 41.5918 26.7461 41.5449 26.7109C41.5098 26.6875 41.457 26.6641 41.3867 26.6406C41.293 26.5352 41.2051 26.4238 41.123 26.3066C41.0527 26.1895 40.9766 26.0723 40.8945 25.9551C40.8242 25.873 40.748 25.8027 40.666 25.7441C40.584 25.6738 40.5078 25.5918 40.4375 25.498C40.25 25.2285 40.0566 24.9707 39.8574 24.7246C39.6699 24.4785 39.4766 24.2324 39.2773 23.9863C39.1836 23.8574 39.0781 23.7344 38.9609 23.6172C38.8555 23.5 38.7559 23.3828 38.6621 23.2656C38.5684 23.1367 38.4805 23.002 38.3984 22.8613C38.3164 22.7207 38.2285 22.5859 38.1348 22.457C38.0645 22.3398 37.9648 22.1992 37.8359 22.0352C37.707 21.8594 37.5723 21.6836 37.4316 21.5078C37.291 21.332 37.1445 21.168 36.9922 21.0156C36.8516 20.8516 36.7285 20.7285 36.623 20.6465C36.623 20.5645 36.5996 20.5059 36.5527 20.4707C36.5059 20.4355 36.4531 20.3945 36.3945 20.3477C36.3711 20.2891 36.3418 20.2363 36.3066 20.1895C36.2715 20.1309 36.2539 20.0664 36.2539 19.9961C36.2539 19.9492 36.2598 19.9082 36.2715 19.873C36.2832 19.8379 36.2949 19.8027 36.3066 19.7676C36.3301 19.7207 36.3418 19.6797 36.3418 19.6445C36.3535 19.5977 36.3711 19.5508 36.3945 19.5039C36.4531 19.3516 36.5352 19.2168 36.6406 19.0996C36.7578 18.9824 36.8457 18.8477 36.9043 18.6953C36.916 18.6484 36.9219 18.6074 36.9219 18.5723C36.9219 18.5254 36.9336 18.4785 36.957 18.4316C36.9922 18.3613 37.0449 18.291 37.1152 18.2207C37.1855 18.1504 37.25 18.0742 37.3086 17.9922C37.3672 17.8867 37.4258 17.7812 37.4844 17.6758C37.543 17.5703 37.6016 17.4648 37.6602 17.3594C37.8242 17.0898 38.0059 16.832 38.2051 16.5859C38.4043 16.3281 38.5918 16.0762 38.7676 15.8301C38.9316 15.5957 39.084 15.3672 39.2246 15.1445C39.3652 14.9102 39.5176 14.6758 39.6816 14.4414C39.7637 14.3242 39.8574 14.1953 39.9629 14.0547C40.0684 13.9023 40.1738 13.7559 40.2793 13.6152C40.3965 13.4746 40.5137 13.3457 40.6309 13.2285C40.748 13.0996 40.8652 13.0059 40.9824 12.9473C41.1816 12.9238 41.3105 12.959 41.3691 13.0527C41.4277 13.1348 41.5098 13.1758 41.6152 13.1758C41.7793 13.2109 41.8906 13.2637 41.9492 13.334C42.0078 13.4043 42.0664 13.4688 42.125 13.5273C42.2773 13.5273 42.4062 13.5566 42.5117 13.6152C42.6172 13.6738 42.7227 13.7617 42.8281 13.8789C42.7812 14.0078 42.7168 14.125 42.6348 14.2305C42.5645 14.3359 42.5 14.4473 42.4414 14.5645C42.3477 14.5996 42.2773 14.6582 42.2305 14.7402C42.1953 14.8223 42.1367 14.8926 42.0547 14.9512C41.9258 15.1504 41.7969 15.3496 41.668 15.5488C41.5391 15.7363 41.4102 15.918 41.2812 16.0938C41.2227 16.1641 41.1523 16.2227 41.0703 16.2695C41 16.3047 40.9414 16.3633 40.8945 16.4453C40.8711 16.4805 40.8535 16.5215 40.8418 16.5684C40.8301 16.6035 40.8125 16.6387 40.7891 16.6738C40.6484 16.8965 40.4902 17.1133 40.3145 17.3242C40.1387 17.5352 39.9863 17.7578 39.8574 17.9922C39.7988 18.0742 39.752 18.1621 39.7168 18.2559C39.6816 18.3379 39.6406 18.4199 39.5938 18.502C39.5469 18.5723 39.4766 18.6719 39.3828 18.8008C39.3008 18.9297 39.2129 19.0645 39.1191 19.2051C39.0371 19.334 38.9609 19.4629 38.8906 19.5918C38.832 19.709 38.8027 19.8086 38.8027 19.8906C38.8145 19.9492 38.8906 20.0664 39.0312 20.2422C39.1719 20.418 39.3242 20.6055 39.4883 20.8047C39.6641 21.0039 39.8281 21.1914 39.9805 21.3672C40.1445 21.543 40.25 21.6543 40.2969 21.7012ZM51.9252 24.8125C51.9134 24.9883 51.9486 25.123 52.0306 25.2168C52.1244 25.2988 52.2005 25.4043 52.2591 25.5332C52.2357 25.6973 52.2533 25.8262 52.3119 25.9199C52.2767 25.9902 52.2416 26.0723 52.2064 26.166C52.1712 26.248 52.1185 26.3184 52.0482 26.377C51.8607 26.459 51.7494 26.5293 51.7142 26.5879C51.6791 26.6465 51.6087 26.6758 51.5033 26.6758C51.4447 26.7344 51.3802 26.793 51.3099 26.8516C51.2396 26.9219 51.1752 26.9863 51.1166 27.0449C51.058 27.0215 51.017 26.9922 50.9935 26.957C50.9701 26.9219 50.9349 26.875 50.888 26.8164C50.7709 26.7812 50.6654 26.7168 50.5716 26.623C50.4779 26.541 50.3959 26.4473 50.3255 26.3418C50.2552 26.2246 50.1849 26.1074 50.1146 25.9902C50.056 25.8613 50.0033 25.7441 49.9564 25.6387C49.7923 25.334 49.6224 25.0293 49.4466 24.7246C49.2826 24.4082 49.1127 24.0977 48.9369 23.793C48.8431 23.6406 48.7494 23.4883 48.6556 23.3359C48.5736 23.1719 48.4857 23.0078 48.392 22.8438C48.3685 22.8203 48.3451 22.7969 48.3216 22.7734C48.2982 22.7383 48.2748 22.7031 48.2513 22.668C48.1693 22.5508 48.1048 22.4219 48.058 22.2812C48.0228 22.1289 47.9408 22.0059 47.8119 21.9121C47.5892 21.8887 47.3841 21.9238 47.1966 22.0176C47.0209 22.0996 46.8627 22.2109 46.722 22.3516C46.7337 22.4336 46.7396 22.5098 46.7396 22.5801C46.7396 22.6504 46.7396 22.7207 46.7396 22.791C46.7396 23.0605 46.7279 23.3184 46.7045 23.5645C46.681 23.8105 46.6693 24.0684 46.6693 24.3379C46.6693 24.4551 46.6752 24.5781 46.6869 24.707C46.6986 24.8242 46.7162 24.9414 46.7396 25.0586C46.7045 25.1875 46.6869 25.3281 46.6869 25.4805C46.6869 25.5625 46.6927 25.6387 46.7045 25.709C46.7279 25.7793 46.7396 25.8555 46.7396 25.9375C46.7396 26.0547 46.6986 26.1367 46.6166 26.1836C46.5462 26.2188 46.5228 26.2891 46.5462 26.3945C46.4056 26.4531 46.2709 26.5117 46.142 26.5703C46.013 26.6289 45.8783 26.6699 45.7377 26.6934C45.6791 26.7051 45.6205 26.7051 45.5619 26.6934C45.5033 26.6934 45.4505 26.7051 45.4037 26.7285C45.3451 26.752 45.2982 26.793 45.263 26.8516C45.2279 26.9219 45.181 26.957 45.1224 26.957C45.0521 26.957 45.0111 26.9277 44.9994 26.8691C44.9877 26.8223 44.9642 26.7812 44.9291 26.7461C44.8705 26.7227 44.8236 26.7109 44.7884 26.7109C44.7533 26.7109 44.7181 26.6934 44.683 26.6582C44.6947 26.5527 44.6712 26.4766 44.6127 26.4297C44.5541 26.3711 44.5248 26.2598 44.5248 26.0957C44.5248 25.9668 44.5306 25.8438 44.5423 25.7266C44.5658 25.6094 44.5775 25.4863 44.5775 25.3574C44.5775 25.252 44.5599 25.1582 44.5248 25.0762C44.5013 24.9824 44.4779 24.8828 44.4545 24.7773C44.4427 24.7305 44.4427 24.6836 44.4545 24.6367C44.4662 24.5898 44.472 24.543 44.472 24.4961C44.472 24.2852 44.4603 24.0742 44.4369 23.8633C44.4252 23.6406 44.4193 23.4238 44.4193 23.2129C44.4193 23.1309 44.4193 23.0547 44.4193 22.9844C44.4193 22.9141 44.4252 22.8438 44.4369 22.7734C44.4603 22.7031 44.4779 22.6445 44.4896 22.5977C44.513 22.5508 44.5248 22.4922 44.5248 22.4219C44.5248 22.1992 44.5013 21.9824 44.4545 21.7715C44.4076 21.5488 44.3841 21.332 44.3841 21.1211C44.3841 21.0039 44.3841 20.8867 44.3841 20.7695C44.3959 20.6406 44.4017 20.5176 44.4017 20.4004C44.4017 20.0605 44.3959 19.7266 44.3841 19.3984C44.3724 19.0703 44.3666 18.7422 44.3666 18.4141C44.3666 18.1797 44.3724 17.9512 44.3841 17.7285C44.3959 17.4941 44.4017 17.2598 44.4017 17.0254C44.4017 16.7324 44.39 16.4453 44.3666 16.1641C44.3431 15.8711 44.3314 15.5723 44.3314 15.2676C44.3314 15.1621 44.3255 15.0918 44.3138 15.0566C44.3021 15.0215 44.2845 15.0039 44.2611 15.0039C44.2377 14.9922 44.2084 14.9863 44.1732 14.9863C44.1498 14.9746 44.1263 14.9512 44.1029 14.916C44.1029 14.8457 44.1322 14.7988 44.1908 14.7754C44.2494 14.7402 44.2787 14.6406 44.2787 14.4766C44.2787 14.3828 44.267 14.2891 44.2435 14.1953C44.2318 14.1016 44.2259 14.0078 44.2259 13.9141C44.2259 13.7734 44.2552 13.6328 44.3138 13.4922C44.3724 13.3516 44.4252 13.2168 44.472 13.0879C44.6127 13.0762 44.7064 13.0762 44.7533 13.0879C44.8119 13.0996 44.8705 13.0938 44.9291 13.0703C44.9642 13.1992 45.0404 13.2695 45.1576 13.2812C45.2748 13.2812 45.3802 13.293 45.474 13.3164C45.5795 13.3281 45.6791 13.3574 45.7728 13.4043C45.8783 13.4395 45.9779 13.457 46.0716 13.457C46.0951 13.5273 46.142 13.5801 46.2123 13.6152C46.2943 13.6387 46.3763 13.6621 46.4584 13.6855C46.5521 13.6738 46.6224 13.6328 46.6693 13.5625C46.7279 13.4922 46.8041 13.457 46.8978 13.457C46.9681 13.457 47.0502 13.5098 47.1439 13.6152C47.2377 13.709 47.308 13.7852 47.3548 13.8438C47.4017 13.8789 47.4896 13.9551 47.6185 14.0723C47.7474 14.1895 47.888 14.3125 48.0404 14.4414C48.1927 14.5586 48.3334 14.6758 48.4623 14.793C48.5912 14.8984 48.6732 14.957 48.7084 14.9688C49.1888 15.4492 49.6341 15.8887 50.0443 16.2871C50.4662 16.6738 50.9232 17.0254 51.4154 17.3418C51.4271 17.377 51.4388 17.4062 51.4505 17.4297C51.474 17.4531 51.4974 17.4824 51.5209 17.5176C51.5209 17.6113 51.5033 17.6816 51.4681 17.7285C51.433 17.7754 51.4154 17.834 51.4154 17.9043C51.4154 17.9395 51.4212 17.9746 51.433 18.0098C51.4564 18.0449 51.4681 18.0801 51.4681 18.1152C51.4798 18.1621 51.4798 18.209 51.4681 18.2559C51.4681 18.291 51.4681 18.332 51.4681 18.3789C51.4681 18.4961 51.5033 18.6016 51.5736 18.6953C51.6556 18.7891 51.6966 18.8945 51.6966 19.0117C51.6732 19.1172 51.6263 19.1816 51.556 19.2051C51.4857 19.2285 51.4271 19.2578 51.3802 19.293C51.3568 19.3164 51.3334 19.3457 51.3099 19.3809C51.2982 19.416 51.2806 19.4453 51.2572 19.4688C50.9994 19.5859 50.8119 19.6973 50.6947 19.8027C50.5775 19.8965 50.4545 19.9902 50.3255 20.084C50.2904 20.1074 50.2318 20.1484 50.1498 20.207C50.0677 20.2539 49.9857 20.3066 49.9037 20.3652C49.8216 20.4121 49.7455 20.4648 49.6752 20.5234C49.6166 20.582 49.5873 20.6289 49.5873 20.6641C49.5873 20.7461 49.6341 20.8633 49.7279 21.0156C49.8334 21.1562 49.9095 21.2676 49.9564 21.3496C50.0853 21.5605 50.2025 21.7715 50.308 21.9824C50.4134 22.1816 50.5306 22.3809 50.6595 22.5801C50.8939 22.9434 51.1107 23.3125 51.3099 23.6875C51.5209 24.0625 51.7259 24.4375 51.9252 24.8125ZM49.0599 18.2734C48.7904 17.9336 48.4974 17.6289 48.181 17.3594C47.8763 17.0781 47.5834 16.7852 47.3021 16.4805L47.1087 16.4453C47.0384 16.3281 46.9564 16.2285 46.8627 16.1465C46.7806 16.0527 46.6927 15.959 46.599 15.8652C46.6107 15.9941 46.6166 16.1172 46.6166 16.2344C46.6166 16.3516 46.6166 16.4746 46.6166 16.6035C46.6166 16.9785 46.6048 17.3477 46.5814 17.7109C46.5697 18.0625 46.5638 18.4199 46.5638 18.7832C46.5638 19.1465 46.5814 19.4922 46.6166 19.8203C46.8627 19.8203 47.0853 19.75 47.2845 19.6094C47.3666 19.5508 47.4427 19.4922 47.513 19.4336C47.5834 19.3633 47.6595 19.2988 47.7416 19.2402C47.8353 19.1816 47.9408 19.1113 48.058 19.0293C48.1869 18.9473 48.3099 18.8652 48.4271 18.7832C48.556 18.7012 48.6732 18.6191 48.7787 18.5371C48.8959 18.4434 48.9896 18.3555 49.0599 18.2734ZM60.1784 14.0547C60.0495 14.2891 59.903 14.5645 59.739 14.8809C59.5749 15.1973 59.446 15.4727 59.3523 15.707C59.3171 15.7891 59.282 15.8711 59.2468 15.9531C59.2234 16.0234 59.1941 16.0996 59.1589 16.1816C59.1003 16.3574 59.0241 16.5273 58.9304 16.6914C58.8484 16.8438 58.7722 17.0078 58.7019 17.1836C58.5964 17.418 58.4851 17.6582 58.3679 17.9043C58.2624 18.1387 58.157 18.3848 58.0515 18.6426C57.9343 18.877 57.8405 19.082 57.7702 19.2578C57.7116 19.4219 57.6472 19.5918 57.5769 19.7676C57.5066 19.9434 57.4421 20.1191 57.3835 20.2949C57.3366 20.459 57.2956 20.6113 57.2605 20.752C57.155 20.9395 57.0671 21.0801 56.9968 21.1738C56.9734 21.3848 56.9499 21.5957 56.9265 21.8066C56.903 22.0176 56.8913 22.2344 56.8913 22.457C56.8913 22.5625 56.8972 22.668 56.9089 22.7734C56.9323 22.8672 56.9499 22.9668 56.9616 23.0723C56.9734 23.2246 56.9734 23.377 56.9616 23.5293C56.9616 23.6699 56.9675 23.8164 56.9792 23.9688C56.9909 24.2617 57.0027 24.5547 57.0144 24.8477C57.0378 25.1289 57.0554 25.4219 57.0671 25.7266C57.0788 25.9375 57.0671 26.1191 57.032 26.2715C57.0085 26.4121 57.0027 26.5586 57.0144 26.7109C56.9792 26.7344 56.9382 26.752 56.8913 26.7637C56.8562 26.7754 56.821 26.793 56.7859 26.8164C56.657 26.8164 56.5691 26.8105 56.5222 26.7988C56.487 26.7988 56.4519 26.8105 56.4167 26.834C56.3112 26.7637 56.2527 26.7285 56.2409 26.7285C56.2292 26.7402 56.2175 26.7461 56.2058 26.7461C56.0652 26.6992 55.989 26.6641 55.9773 26.6406C55.9655 26.6172 55.9421 26.5938 55.907 26.5703C55.778 26.5703 55.6726 26.5879 55.5905 26.623C55.5554 26.5996 55.5261 26.5762 55.5027 26.5527C55.4792 26.5293 55.4499 26.5059 55.4148 26.4824C55.3093 26.4707 55.2214 26.459 55.1511 26.4473C55.0808 26.4238 55.0222 26.4004 54.9753 26.377C54.9402 26.2832 54.8991 26.2012 54.8523 26.1309C54.8171 26.0605 54.7995 25.9668 54.7995 25.8496C54.7995 25.7559 54.8112 25.668 54.8347 25.5859C54.8581 25.5039 54.8757 25.416 54.8874 25.3223C54.8874 25.2637 54.8816 25.2109 54.8698 25.1641C54.8698 25.1172 54.8698 25.0645 54.8698 25.0059C54.8698 24.9473 54.8816 24.8711 54.905 24.7773C54.8698 24.5078 54.8523 24.2266 54.8523 23.9336C54.864 23.6289 54.8698 23.3418 54.8698 23.0723C54.8698 22.8027 54.8464 22.5508 54.7995 22.3164C54.8112 22.1641 54.8112 22.0586 54.7995 22C54.7878 21.9297 54.782 21.8594 54.782 21.7891C54.782 21.7305 54.7878 21.6719 54.7995 21.6133C54.8112 21.543 54.8171 21.4785 54.8171 21.4199C54.8171 21.4082 54.8054 21.3496 54.782 21.2441C54.7702 21.127 54.7527 21.0098 54.7292 20.8926C54.7058 20.7637 54.6823 20.6465 54.6589 20.541C54.6355 20.4238 54.6237 20.3535 54.6237 20.3301C54.5066 20.1191 54.4187 19.9199 54.3601 19.7324C54.3015 19.5449 54.237 19.3867 54.1667 19.2578C54.1198 19.1641 54.073 19.0703 54.0261 18.9766C53.9792 18.8828 53.9382 18.7832 53.903 18.6777C53.8796 18.6191 53.8562 18.5547 53.8327 18.4844C53.821 18.4141 53.8034 18.3496 53.78 18.291C53.7331 18.1973 53.6862 18.0977 53.6394 17.9922C53.6042 17.875 53.5573 17.7812 53.4987 17.7109C53.4519 17.6055 53.405 17.5117 53.3581 17.4297C53.323 17.3359 53.3054 17.248 53.3054 17.166C53.2702 17.0254 53.2116 16.9023 53.1296 16.7969C53.0593 16.6797 52.9948 16.5625 52.9362 16.4453C52.9011 16.375 52.8718 16.3105 52.8484 16.252C52.8366 16.1934 52.8191 16.1348 52.7956 16.0762C52.7722 16.0293 52.737 15.9707 52.6902 15.9004C52.655 15.8301 52.614 15.7773 52.5671 15.7422C52.5437 15.6367 52.5027 15.543 52.4441 15.4609C52.3855 15.3789 52.3445 15.2852 52.321 15.1797C52.2624 15.0977 52.198 15.0156 52.1277 14.9336C52.0808 14.7578 52.0163 14.5996 51.9343 14.459C51.8523 14.3066 51.7761 14.1484 51.7058 13.9844C51.7527 13.7383 51.8874 13.5859 52.1101 13.5273C52.2273 13.3867 52.2976 13.3105 52.321 13.2988C52.3445 13.2871 52.3972 13.2812 52.4792 13.2812C52.5495 13.2227 52.6198 13.1758 52.6902 13.1406C52.7605 13.0938 52.8425 13.082 52.9362 13.1055C52.948 13.0586 52.9773 13.0176 53.0241 12.9824C53.0827 12.9473 53.1355 12.9297 53.1823 12.9297C53.2527 12.9297 53.3112 12.9648 53.3581 13.0352C53.4167 13.1055 53.4753 13.1582 53.5339 13.1934C53.6277 13.3574 53.7214 13.5156 53.8152 13.668C53.9206 13.8203 54.0085 13.9785 54.0788 14.1426C54.1609 14.3066 54.2312 14.4707 54.2898 14.6348C54.3601 14.7988 54.4597 14.957 54.5886 15.1094C54.6472 15.3438 54.7351 15.5664 54.8523 15.7773C54.9812 15.9766 55.0866 16.1934 55.1687 16.4277C55.2273 16.5684 55.2917 16.709 55.362 16.8496C55.4441 16.9785 55.5144 17.1191 55.573 17.2715C55.6081 17.3418 55.6374 17.4121 55.6609 17.4824C55.6843 17.5527 55.7077 17.623 55.7312 17.6934C55.7546 17.752 55.778 17.8281 55.8015 17.9219C55.8249 18.0156 55.8542 18.0918 55.8894 18.1504C55.9714 18.0684 56.0417 17.9629 56.1003 17.834C56.1823 17.6699 56.2644 17.5176 56.3464 17.377C56.4402 17.2246 56.5222 17.0664 56.5925 16.9023C56.6862 16.75 56.7507 16.5918 56.7859 16.4277C56.8327 16.2637 56.8855 16.0996 56.9441 15.9355C56.9675 15.877 56.9909 15.8184 57.0144 15.7598C57.0495 15.7012 57.0788 15.6367 57.1023 15.5664C57.1374 15.4961 57.1667 15.4258 57.1902 15.3555C57.2136 15.2852 57.237 15.2148 57.2605 15.1445C57.3425 14.9219 57.4304 14.7051 57.5241 14.4941C57.6296 14.2715 57.7351 14.0488 57.8405 13.8262C57.8523 13.791 57.8757 13.7383 57.9109 13.668C57.9577 13.5977 58.0046 13.5273 58.0515 13.457C58.1101 13.375 58.1628 13.3047 58.2097 13.2461C58.2566 13.1875 58.2976 13.1465 58.3327 13.123C58.3562 13.0996 58.3913 13.0879 58.4382 13.0879C58.4968 13.0762 58.5437 13.0645 58.5788 13.0527C58.6843 13.0527 58.7605 13.082 58.8073 13.1406C58.948 13.1992 59.0534 13.2402 59.1237 13.2637C59.1941 13.2871 59.2468 13.3398 59.282 13.4219C59.4577 13.5391 59.5866 13.6094 59.6687 13.6328C59.7624 13.6445 59.8327 13.6914 59.8796 13.7734C60.0085 13.8555 60.0847 13.9141 60.1081 13.9492C60.1316 13.9844 60.155 14.0195 60.1784 14.0547ZM62.1388 13.7207C62.1856 13.709 62.2266 13.6914 62.2618 13.668C62.297 13.6445 62.338 13.6328 62.3848 13.6328C62.42 13.6445 62.4434 13.668 62.4552 13.7031C62.4786 13.7383 62.5079 13.7676 62.543 13.791C62.5782 13.7676 62.6075 13.7441 62.6309 13.7207C62.6661 13.6973 62.7013 13.6797 62.7364 13.668C62.8536 13.7031 62.918 13.7617 62.9298 13.8438C62.9884 13.8672 63.0411 13.8965 63.088 13.9316C63.1348 13.9551 63.1876 13.9727 63.2462 13.9844C63.2696 14.0312 63.2989 14.0664 63.3341 14.0898C63.3692 14.1133 63.4102 14.1484 63.4571 14.1953C63.5743 14.2188 63.7266 14.2832 63.9141 14.3887C64.1134 14.4941 64.2716 14.5762 64.3888 14.6348C64.5059 14.6934 64.6231 14.752 64.7403 14.8105C64.8575 14.8691 64.9688 14.9336 65.0743 15.0039C65.1798 15.0625 65.2852 15.1328 65.3907 15.2148C65.4962 15.2852 65.6075 15.3438 65.7247 15.3906C65.8302 15.5195 65.9649 15.6016 66.129 15.6367C66.293 15.6719 66.4395 15.7363 66.5684 15.8301C66.6739 15.8887 66.7735 15.9531 66.8673 16.0234C66.961 16.082 67.0548 16.1406 67.1485 16.1992C67.1837 16.2578 67.2247 16.3047 67.2716 16.3398C67.3302 16.375 67.3829 16.4219 67.4298 16.4805C67.6641 16.6094 67.7989 16.709 67.8341 16.7793C67.8692 16.8027 67.922 16.8379 67.9923 16.8848C68.0626 16.9316 68.1329 16.9844 68.2032 17.043C68.2735 17.0898 68.338 17.1426 68.3966 17.2012C68.4552 17.248 68.4903 17.2949 68.502 17.3418C68.4552 17.4473 68.4317 17.5352 68.4317 17.6055C68.4317 17.6641 68.4083 17.7168 68.3614 17.7637C68.4317 17.8574 68.4669 17.9453 68.4669 18.0273C68.4083 18.168 68.3087 18.2852 68.168 18.3789C68.1329 18.4727 68.0743 18.5488 67.9923 18.6074C67.922 18.6543 67.8751 18.7246 67.8516 18.8184C67.7579 18.877 67.6993 18.9238 67.6759 18.959C67.6641 18.9941 67.6466 19.0293 67.6231 19.0645C67.4005 19.2988 67.1895 19.5039 66.9903 19.6797C66.8028 19.8438 66.627 20.0254 66.463 20.2246C66.3458 20.2832 66.2462 20.3594 66.1641 20.4531C66.0821 20.5352 66.0059 20.6289 65.9356 20.7344C65.8419 20.8281 65.7481 20.9219 65.6544 21.0156C65.5723 21.0977 65.4845 21.1797 65.3907 21.2617C65.3673 21.3086 65.3263 21.3496 65.2677 21.3848C65.2208 21.4082 65.1856 21.4492 65.1622 21.5078C65.0333 21.5664 64.9278 21.6484 64.8458 21.7539C64.7638 21.8594 64.6641 21.9473 64.547 22.0176L64.4239 22.1934C64.3888 22.2168 64.336 22.2578 64.2657 22.3164C64.2071 22.3633 64.1427 22.4219 64.0723 22.4922C64.0138 22.5508 63.961 22.6094 63.9141 22.668C63.8673 22.7266 63.838 22.7734 63.8263 22.8086C63.7911 22.8203 63.7325 22.8555 63.6505 22.9141C63.5802 22.9727 63.504 23.0371 63.422 23.1074C63.3516 23.1777 63.2813 23.248 63.211 23.3184C63.1524 23.3887 63.1173 23.4355 63.1055 23.459L62.9298 23.582C62.9415 23.8984 62.9473 24.2207 62.9473 24.5488C62.9591 24.8652 62.9649 25.1816 62.9649 25.498V26.0957L62.8419 26.2539C62.7833 26.2539 62.7364 26.2422 62.7013 26.2188C62.6661 26.1953 62.6251 26.1836 62.5782 26.1836C62.5313 26.1836 62.4845 26.207 62.4376 26.2539C62.4024 26.3008 62.3673 26.3359 62.3321 26.3594C62.2501 26.3711 62.1798 26.3945 62.1212 26.4297C62.0743 26.4531 62.0216 26.4766 61.963 26.5C61.8927 26.4648 61.8223 26.4473 61.752 26.4473C61.5997 26.4824 61.5235 26.4883 61.5235 26.4648C61.5352 26.4414 61.5118 26.4297 61.4532 26.4297C61.3595 26.5234 61.3009 26.5703 61.2774 26.5703C61.2305 26.5703 61.1837 26.5762 61.1368 26.5879C61.1016 26.5996 61.0606 26.6055 61.0138 26.6055C60.9669 26.5117 60.9259 26.418 60.8907 26.3242C60.8673 26.2188 60.8145 26.1191 60.7325 26.0254C60.7677 25.9082 60.7618 25.8262 60.7149 25.7793C60.7852 25.6504 60.8145 25.5039 60.8028 25.3398C60.7911 25.1758 60.7852 25.0234 60.7852 24.8828C60.7852 24.8008 60.7852 24.7246 60.7852 24.6543C60.797 24.5723 60.8028 24.4961 60.8028 24.4258C60.8028 24.2852 60.7911 24.1445 60.7677 24.0039C60.7442 23.8516 60.7325 23.6992 60.7325 23.5469C60.7325 23.1953 60.7442 22.8438 60.7677 22.4922C60.7911 22.1289 60.8028 21.7715 60.8028 21.4199C60.8028 21.2207 60.7911 21.0156 60.7677 20.8047C60.7559 20.5938 60.7501 20.3887 60.7501 20.1895C60.7501 20.0605 60.7559 19.9434 60.7677 19.8379C60.7794 19.7207 60.7911 19.6094 60.8028 19.5039C60.8028 18.9648 60.8087 18.4492 60.8204 17.957C60.8438 17.4531 60.8555 16.9551 60.8555 16.4629C60.8555 16.2988 60.8497 16.1465 60.838 16.0059C60.838 15.8535 60.838 15.6953 60.838 15.5312C60.838 15.4492 60.8438 15.3672 60.8555 15.2852C60.8673 15.2031 60.8731 15.1211 60.8731 15.0391C60.9083 14.6758 60.9259 14.3125 60.9259 13.9492L60.9083 13.668C60.9552 13.5977 61.0255 13.5625 61.1192 13.5625C61.2481 13.5625 61.3477 13.6035 61.418 13.6855C61.5001 13.6738 61.5763 13.6621 61.6466 13.6504C61.7286 13.627 61.8048 13.6152 61.8751 13.6152C61.9805 13.6152 62.0684 13.6504 62.1388 13.7207ZM63.1759 16.5156C63.1759 16.5742 63.17 16.6211 63.1583 16.6562C63.1466 16.6797 63.1348 16.7031 63.1231 16.7266C63.1231 16.7617 63.1231 16.8027 63.1231 16.8496C63.1348 16.8848 63.1407 16.9258 63.1407 16.9727C63.1407 17.2422 63.1348 17.5117 63.1231 17.7812C63.1231 18.0391 63.1231 18.2969 63.1231 18.5547L63.088 19.4863C63.088 19.5449 63.0938 19.6094 63.1055 19.6797C63.1173 19.75 63.1231 19.8145 63.1231 19.873C63.1231 19.9316 63.1173 19.9902 63.1055 20.0488C63.0938 20.1074 63.088 20.166 63.088 20.2246C63.088 20.377 63.1055 20.5293 63.1407 20.6816C63.1993 20.6582 63.2403 20.623 63.2638 20.5762C63.2872 20.5176 63.3165 20.4707 63.3516 20.4355C63.6212 20.1895 63.8731 19.9316 64.1075 19.6621C64.3419 19.3926 64.5821 19.123 64.8282 18.8535C65.0391 18.6309 65.2208 18.4492 65.3731 18.3086C65.5255 18.168 65.6427 17.998 65.7247 17.7988C65.5255 17.6699 65.3204 17.541 65.1095 17.4121C64.8985 17.2715 64.6759 17.1543 64.4415 17.0605C64.4298 17.0371 64.3946 17.0078 64.336 16.9727C64.2891 16.9375 64.2364 16.9082 64.1778 16.8848C64.1192 16.8496 64.0606 16.8203 64.002 16.7969C63.9434 16.7734 63.9024 16.7617 63.879 16.7617C63.7735 16.668 63.6622 16.6094 63.545 16.5859C63.463 16.5859 63.3927 16.5742 63.3341 16.5508C63.2755 16.5156 63.2345 16.4863 63.211 16.4629L63.1759 16.5156ZM76.2983 13.9316C76.2748 13.9785 76.2631 14.0254 76.2631 14.0723C76.2748 14.1191 76.2807 14.1719 76.2807 14.2305C76.2573 14.3711 76.2573 14.4414 76.2807 14.4414C76.3041 14.4414 76.3159 14.4531 76.3159 14.4766L76.1928 14.6523C76.1928 14.7227 76.1752 14.7871 76.1401 14.8457C76.1166 14.9043 76.1108 14.9746 76.1225 15.0566C76.0873 15.1152 76.0522 15.1738 76.017 15.2324C75.9936 15.291 75.9526 15.3496 75.894 15.4082H75.6655C75.5366 15.4082 75.3959 15.4199 75.2436 15.4434C75.103 15.4551 74.9623 15.4609 74.8217 15.4609C74.7983 15.4609 74.769 15.4609 74.7338 15.4609C74.6987 15.4492 74.6635 15.4434 74.6284 15.4434C74.6049 15.4434 74.5756 15.4492 74.5405 15.4609C74.5053 15.4609 74.4643 15.4609 74.4174 15.4609C74.2416 15.4609 74.0659 15.4551 73.8901 15.4434C73.726 15.4199 73.5502 15.4082 73.3627 15.4082C73.3159 15.4082 73.269 15.4082 73.2221 15.4082C73.1752 15.4082 73.1225 15.4141 73.0639 15.4258C73.0522 15.625 73.0405 15.8301 73.0287 16.041C73.0287 16.2402 73.0287 16.4453 73.0287 16.6562C73.0287 16.7148 73.0229 16.7793 73.0112 16.8496C72.9995 16.9082 72.9936 16.9668 72.9936 17.0254C72.9819 17.1777 72.9702 17.3242 72.9584 17.4648C72.9584 17.6055 72.9584 17.752 72.9584 17.9043C72.9584 18.2324 72.9584 18.5605 72.9584 18.8887C72.9702 19.2168 72.9819 19.5508 72.9936 19.8906C73.0053 20.0664 73.017 20.2363 73.0287 20.4004C73.0405 20.5645 73.0463 20.7344 73.0463 20.9102C73.0463 21.3086 73.0405 21.707 73.0287 22.1055C73.017 22.4922 73.0112 22.8848 73.0112 23.2832C73.0112 23.4121 73.0053 23.5352 72.9936 23.6523C72.9819 23.7578 72.976 23.875 72.976 24.0039C72.976 24.2734 72.9819 24.543 72.9936 24.8125C73.0053 25.082 73.0112 25.3516 73.0112 25.6211C73.0112 25.75 73.0053 25.8789 72.9936 26.0078C72.9936 26.1367 72.9936 26.2656 72.9936 26.3945C72.935 26.4883 72.894 26.5703 72.8705 26.6406C72.8471 26.7109 72.7768 26.7461 72.6596 26.7461C72.5776 26.7227 72.5366 26.6934 72.5366 26.6582C72.5483 26.6348 72.5424 26.6113 72.519 26.5879C72.4135 26.5762 72.3315 26.582 72.2729 26.6055C72.226 26.6406 72.1674 26.6699 72.0971 26.6934C72.062 26.6816 72.0209 26.6758 71.9741 26.6758C71.9389 26.6758 71.9037 26.6758 71.8686 26.6758C71.8452 26.6758 71.8217 26.6816 71.7983 26.6934C71.7748 26.7168 71.7221 26.7285 71.6401 26.7285C71.5698 26.7402 71.5287 26.7285 71.517 26.6934C71.5053 26.6582 71.4702 26.6406 71.4116 26.6406C71.353 26.6758 71.2827 26.6992 71.2006 26.7109C71.1303 26.7344 71.06 26.7461 70.9897 26.7461C70.9194 26.6992 70.8842 26.6523 70.8842 26.6055C70.8959 26.5703 70.8901 26.5293 70.8666 26.4824C70.8549 26.459 70.8315 26.4297 70.7963 26.3945C70.7729 26.3477 70.7495 26.3125 70.726 26.2891C70.7495 26.125 70.767 25.9785 70.7787 25.8496C70.7905 25.7207 70.7963 25.5801 70.7963 25.4277C70.7963 25.123 70.7846 24.8242 70.7612 24.5312C70.7377 24.2383 70.726 23.9395 70.726 23.6348C70.726 23.541 70.7377 23.4414 70.7612 23.3359C70.7846 23.2305 70.7963 23.1191 70.7963 23.002C70.7729 22.9082 70.767 22.8555 70.7787 22.8438C70.7905 22.8203 70.7963 22.7969 70.7963 22.7734C70.7963 22.7031 70.7905 22.6328 70.7787 22.5625C70.7787 22.4922 70.7787 22.4219 70.7787 22.3516C70.7787 22.2109 70.7787 22.0703 70.7787 21.9297C70.7905 21.7891 70.7963 21.6484 70.7963 21.5078C70.7963 21.4492 70.7905 21.3906 70.7787 21.332C70.7787 21.2617 70.7787 21.1973 70.7787 21.1387C70.767 21.0332 70.7612 20.9219 70.7612 20.8047C70.7729 20.6875 70.7787 20.5703 70.7787 20.4531C70.7787 19.8906 70.767 19.334 70.7436 18.7832C70.7319 18.2324 70.726 17.6758 70.726 17.1133C70.726 16.832 70.7377 16.5566 70.7612 16.2871C70.7963 16.0059 70.8139 15.7246 70.8139 15.4434C70.8139 15.4082 70.8022 15.3613 70.7787 15.3027C70.7553 15.2441 70.7319 15.2031 70.7084 15.1797C70.6498 15.1797 70.5912 15.1797 70.5327 15.1797C70.4858 15.168 70.433 15.1621 70.3745 15.1621C70.2455 15.1621 70.1225 15.1797 70.0053 15.2148C69.7827 15.2266 69.5659 15.2441 69.3549 15.2676C69.1557 15.2793 68.9506 15.291 68.7397 15.3027C68.5991 15.291 68.5112 15.291 68.476 15.3027C68.4526 15.3027 68.4233 15.3027 68.3881 15.3027C68.2944 15.3027 68.2241 15.2793 68.1772 15.2324V15.0039C68.1069 14.8633 68.0776 14.7871 68.0893 14.7754C68.101 14.7637 68.1069 14.7461 68.1069 14.7227C68.1069 14.6875 68.0776 14.6523 68.019 14.6172C67.9487 14.5703 67.9135 14.5 67.9135 14.4062C67.9018 14.3125 67.8784 14.2422 67.8432 14.1953C67.808 14.1484 67.7905 14.1016 67.7905 14.0547C67.7905 13.9727 67.808 13.8789 67.8432 13.7734C67.9487 13.7148 68.0483 13.6738 68.142 13.6504C68.2475 13.627 68.3647 13.5977 68.4936 13.5625C68.5639 13.5391 68.6284 13.5156 68.687 13.4922C68.7455 13.4688 68.81 13.4512 68.8803 13.4395C68.9623 13.4277 69.0444 13.4219 69.1264 13.4219C69.2084 13.4219 69.2905 13.416 69.3725 13.4043C69.5483 13.3691 69.7299 13.3398 69.9174 13.3164C70.1166 13.293 70.3041 13.2812 70.4799 13.2812C70.644 13.2812 70.808 13.3047 70.9721 13.3516C71.1362 13.3867 71.2827 13.4043 71.4116 13.4043C71.5991 13.4043 71.7748 13.416 71.9389 13.4395C72.1147 13.4629 72.2963 13.4746 72.4838 13.4746C72.5073 13.4746 72.5424 13.4863 72.5893 13.5098C72.6479 13.5215 72.7123 13.5273 72.7827 13.5273H74.4877C74.5815 13.5508 74.6459 13.5566 74.6811 13.5449C74.728 13.5332 74.769 13.5273 74.8041 13.5273C74.8979 13.5273 74.9858 13.5332 75.0678 13.5449C75.1498 13.5566 75.2377 13.5625 75.3315 13.5625C75.4135 13.5625 75.478 13.5566 75.5248 13.5449C75.6186 13.5566 75.7065 13.5859 75.7885 13.6328C75.8705 13.668 75.9643 13.6855 76.0698 13.6855C76.1166 13.7207 76.1518 13.7676 76.1752 13.8262C76.1987 13.873 76.2397 13.9082 76.2983 13.9316ZM79.6297 14.5469C79.6297 14.6523 79.5945 14.7344 79.5242 14.793C79.4539 14.8398 79.3895 14.9043 79.3309 14.9863C79.2137 15.0918 79.1082 15.2031 79.0145 15.3203C78.9324 15.4258 78.8328 15.5312 78.7156 15.6367C78.6688 15.6836 78.6043 15.748 78.5223 15.8301C78.4402 15.9004 78.3523 15.9766 78.2586 16.0586C78.1766 16.1289 78.0887 16.1934 77.9949 16.252C77.9129 16.3105 77.8426 16.3398 77.784 16.3398C77.6902 16.3398 77.5672 16.3105 77.4148 16.252C77.2742 16.1816 77.1512 16.1348 77.0457 16.1113C76.9637 16.0996 76.8875 16.0938 76.8172 16.0938C76.7586 16.082 76.7 16.0469 76.6414 15.9883C76.4305 15.9414 76.2957 15.8711 76.2371 15.7773C76.1785 15.6719 76.1141 15.5664 76.0438 15.4609C76.0438 15.4141 76.0613 15.3848 76.0965 15.373C76.1316 15.3613 76.1609 15.3379 76.1844 15.3027C76.3016 15.1504 76.4012 15.0273 76.4832 14.9336C76.5652 14.8281 76.659 14.7227 76.7645 14.6172C76.9637 14.4414 77.1512 14.2598 77.327 14.0723C77.5145 13.8848 77.7078 13.709 77.907 13.5449C78.0008 13.5332 78.0711 13.498 78.118 13.4395C78.1648 13.3809 78.2352 13.3516 78.3289 13.3516C78.4227 13.3516 78.4988 13.3809 78.5574 13.4395C78.6277 13.498 78.6863 13.5684 78.7332 13.6504C78.7918 13.7207 78.8445 13.7969 78.8914 13.8789C78.95 13.9492 79.0145 14.002 79.0848 14.0371C79.1668 14.0957 79.2781 14.1719 79.4188 14.2656C79.5594 14.3594 79.6297 14.4531 79.6297 14.5469ZM77.2215 17.8164C77.3035 17.8633 77.3621 17.9277 77.3973 18.0098C77.4441 18.0801 77.5086 18.1328 77.5906 18.168C77.6609 18.2031 77.7371 18.2207 77.8191 18.2207C77.9012 18.2207 77.9715 18.2324 78.0301 18.2559C78.077 18.2793 78.1121 18.3086 78.1355 18.3438C78.159 18.3789 78.1824 18.4141 78.2059 18.4492C78.2762 18.5078 78.3816 18.5605 78.5223 18.6074C78.6746 18.6543 78.7742 18.707 78.8211 18.7656C78.9031 18.8711 78.9617 19.0059 78.9969 19.1699C79.0438 19.334 79.0789 19.5098 79.1023 19.6973C79.1258 19.873 79.1434 20.0547 79.1551 20.2422C79.1668 20.418 79.1844 20.5703 79.2078 20.6992C79.2313 20.9688 79.2605 21.2383 79.2957 21.5078C79.3309 21.7656 79.3484 22.0293 79.3484 22.2988C79.3484 22.5684 79.3367 22.8438 79.3133 23.125C79.2898 23.4062 79.2781 23.6816 79.2781 23.9512C79.2781 24.0918 79.2723 24.2676 79.2605 24.4785C79.2605 24.6895 79.2137 24.8535 79.1199 24.9707C79.1082 25.0176 79.1023 25.0996 79.1023 25.2168V25.7793C79.1023 25.8496 79.1082 25.9199 79.1199 25.9902C79.1316 26.0605 79.1375 26.1367 79.1375 26.2188C79.1375 26.3477 79.1023 26.4414 79.032 26.5C78.9969 26.4883 78.9559 26.4824 78.909 26.4824C78.8738 26.4824 78.8387 26.4824 78.8035 26.4824C78.6746 26.4824 78.5809 26.5059 78.5223 26.5527C78.3934 26.541 78.2703 26.5293 78.1531 26.5176C78.0359 26.5059 77.9129 26.5 77.784 26.5C77.5848 26.5 77.368 26.5293 77.1336 26.5879C77.0867 26.4707 77.0633 26.3477 77.0633 26.2188C77.075 26.0898 77.0516 25.9727 76.993 25.8672C76.9813 25.832 76.9695 25.8027 76.9578 25.7793C76.9578 25.7441 76.9578 25.709 76.9578 25.6738C76.993 25.5332 77.0105 25.4395 77.0105 25.3926C77.0105 25.334 77.0105 25.2754 77.0105 25.2168C77.0105 25.0527 77.0047 24.8887 76.993 24.7246C76.9813 24.5488 76.9871 24.3789 77.0105 24.2148C77.0105 24.1562 77.0164 24.1035 77.0281 24.0566C77.0516 24.0098 77.0633 23.957 77.0633 23.8984C77.0633 23.8398 77.0516 23.7988 77.0281 23.7754C77.0047 23.752 76.993 23.7227 76.993 23.6875C76.993 23.6523 76.993 23.5938 76.993 23.5117C77.0047 23.4297 77.0223 23.377 77.0457 23.3535C77.0457 23.2598 77.0457 23.1719 77.0457 23.0898C77.0574 22.9961 77.0633 22.9082 77.0633 22.8262C77.0633 22.6387 77.0574 22.4512 77.0457 22.2637C77.034 22.0762 77.0281 21.8945 77.0281 21.7188C77.0281 21.6367 77.0223 21.584 77.0105 21.5605C76.9988 21.5371 76.9871 21.5195 76.9754 21.5078C76.9637 21.4961 76.9461 21.4902 76.9227 21.4902C76.8992 21.4785 76.8816 21.4551 76.8699 21.4199C76.9168 20.9043 76.8992 20.3887 76.8172 19.873C76.7352 19.3574 76.6941 18.8359 76.6941 18.3086C76.6941 18.2266 76.7059 18.168 76.7293 18.1328C76.7527 18.0859 76.782 18.0508 76.8172 18.0273C76.8523 18.0039 76.8816 17.9805 76.9051 17.957C76.9402 17.9219 76.9637 17.875 76.9754 17.8164C77.0691 17.8398 77.1512 17.8398 77.2215 17.8164ZM83.9455 21.7012C83.9689 21.7598 84.0568 21.8887 84.2091 22.0879C84.3615 22.2754 84.5314 22.4863 84.7189 22.7207C84.9181 22.9434 85.1115 23.1602 85.299 23.3711C85.4865 23.582 85.6154 23.7344 85.6857 23.8281C85.9084 24.1562 86.1369 24.4785 86.3713 24.7949C86.6056 25.1113 86.8283 25.4395 87.0392 25.7793C87.0978 25.8379 87.1447 25.9141 87.1798 26.0078C87.215 26.0898 87.2326 26.1777 87.2326 26.2715C87.2326 26.377 87.2033 26.4355 87.1447 26.4473C87.0978 26.4473 87.0451 26.459 86.9865 26.4824C86.8693 26.5645 86.7638 26.6113 86.6701 26.623C86.5763 26.6348 86.5002 26.6406 86.4416 26.6406C86.3127 26.6406 86.172 26.6348 86.0197 26.623C85.8673 26.623 85.7384 26.6348 85.633 26.6582C85.5978 26.6699 85.5568 26.6875 85.5099 26.7109C85.463 26.7461 85.4279 26.7637 85.4045 26.7637C85.3107 26.7637 85.2404 26.7461 85.1935 26.7109C85.1584 26.6875 85.1056 26.6641 85.0353 26.6406C84.9416 26.5352 84.8537 26.4238 84.7716 26.3066C84.7013 26.1895 84.6252 26.0723 84.5431 25.9551C84.4728 25.873 84.3966 25.8027 84.3146 25.7441C84.2326 25.6738 84.1564 25.5918 84.0861 25.498C83.8986 25.2285 83.7052 24.9707 83.506 24.7246C83.3185 24.4785 83.1252 24.2324 82.9259 23.9863C82.8322 23.8574 82.7267 23.7344 82.6095 23.6172C82.5041 23.5 82.4045 23.3828 82.3107 23.2656C82.217 23.1367 82.1291 23.002 82.047 22.8613C81.965 22.7207 81.8771 22.5859 81.7834 22.457C81.713 22.3398 81.6134 22.1992 81.4845 22.0352C81.3556 21.8594 81.2209 21.6836 81.0802 21.5078C80.9396 21.332 80.7931 21.168 80.6408 21.0156C80.5002 20.8516 80.3771 20.7285 80.2716 20.6465C80.2716 20.5645 80.2482 20.5059 80.2013 20.4707C80.1545 20.4355 80.1017 20.3945 80.0431 20.3477C80.0197 20.2891 79.9904 20.2363 79.9552 20.1895C79.9201 20.1309 79.9025 20.0664 79.9025 19.9961C79.9025 19.9492 79.9084 19.9082 79.9201 19.873C79.9318 19.8379 79.9435 19.8027 79.9552 19.7676C79.9787 19.7207 79.9904 19.6797 79.9904 19.6445C80.0021 19.5977 80.0197 19.5508 80.0431 19.5039C80.1017 19.3516 80.1838 19.2168 80.2892 19.0996C80.4064 18.9824 80.4943 18.8477 80.5529 18.6953C80.5646 18.6484 80.5705 18.6074 80.5705 18.5723C80.5705 18.5254 80.5822 18.4785 80.6056 18.4316C80.6408 18.3613 80.6935 18.291 80.7638 18.2207C80.8341 18.1504 80.8986 18.0742 80.9572 17.9922C81.0158 17.8867 81.0744 17.7812 81.133 17.6758C81.1916 17.5703 81.2502 17.4648 81.3088 17.3594C81.4728 17.0898 81.6545 16.832 81.8537 16.5859C82.0529 16.3281 82.2404 16.0762 82.4162 15.8301C82.5802 15.5957 82.7326 15.3672 82.8732 15.1445C83.0138 14.9102 83.1662 14.6758 83.3302 14.4414C83.4123 14.3242 83.506 14.1953 83.6115 14.0547C83.717 13.9023 83.8224 13.7559 83.9279 13.6152C84.0451 13.4746 84.1623 13.3457 84.2795 13.2285C84.3966 13.0996 84.5138 13.0059 84.631 12.9473C84.8302 12.9238 84.9591 12.959 85.0177 13.0527C85.0763 13.1348 85.1584 13.1758 85.2638 13.1758C85.4279 13.2109 85.5392 13.2637 85.5978 13.334C85.6564 13.4043 85.715 13.4688 85.7736 13.5273C85.9259 13.5273 86.0548 13.5566 86.1603 13.6152C86.2658 13.6738 86.3713 13.7617 86.4767 13.8789C86.4298 14.0078 86.3654 14.125 86.2834 14.2305C86.213 14.3359 86.1486 14.4473 86.09 14.5645C85.9963 14.5996 85.9259 14.6582 85.8791 14.7402C85.8439 14.8223 85.7853 14.8926 85.7033 14.9512C85.5744 15.1504 85.4455 15.3496 85.3166 15.5488C85.1877 15.7363 85.0588 15.918 84.9298 16.0938C84.8713 16.1641 84.8009 16.2227 84.7189 16.2695C84.6486 16.3047 84.59 16.3633 84.5431 16.4453C84.5197 16.4805 84.5021 16.5215 84.4904 16.5684C84.4787 16.6035 84.4611 16.6387 84.4377 16.6738C84.297 16.8965 84.1388 17.1133 83.963 17.3242C83.7873 17.5352 83.6349 17.7578 83.506 17.9922C83.4474 18.0742 83.4005 18.1621 83.3654 18.2559C83.3302 18.3379 83.2892 18.4199 83.2423 18.502C83.1955 18.5723 83.1252 18.6719 83.0314 18.8008C82.9494 18.9297 82.8615 19.0645 82.7677 19.2051C82.6857 19.334 82.6095 19.4629 82.5392 19.5918C82.4806 19.709 82.4513 19.8086 82.4513 19.8906C82.463 19.9492 82.5392 20.0664 82.6798 20.2422C82.8205 20.418 82.9728 20.6055 83.1369 20.8047C83.3127 21.0039 83.4767 21.1914 83.6291 21.3672C83.7931 21.543 83.8986 21.6543 83.9455 21.7012Z" fill="white"/>
</svg>
