<svg width="42" height="42" viewBox="0 0 42 42" fill="none" xmlns="http://www.w3.org/2000/svg">
<path opacity="0.2" fill-rule="evenodd" clip-rule="evenodd" d="M20.8 41.8002C32.2875 41.8002 41.6 32.4877 41.6 21.0002C41.6 9.51267 32.2875 0.200195 20.8 0.200195C9.31248 0.200195 0 9.51267 0 21.0002C0 32.4877 9.31248 41.8002 20.8 41.8002Z" fill="#83BD67"/>
<path fill-rule="evenodd" clip-rule="evenodd" d="M18.9779 11.4004C20.1202 11.4004 21.2584 11.4004 22.4007 11.4004C22.3335 12.1731 22.2621 12.9501 22.1991 13.7229C23.5305 13.8195 24.8282 14.2478 25.9957 14.882C25.4918 16.1503 24.9836 17.4187 24.4754 18.687C23.4927 17.8512 22.1991 17.3893 20.9098 17.4061C20.5864 17.4145 20.2504 17.4775 19.9817 17.6623C19.8053 17.7841 19.6751 17.973 19.6373 18.183C19.6079 18.351 19.6163 18.54 19.7087 18.6912C19.8137 18.8592 19.9985 18.96 20.1832 19.023C20.5612 19.1574 20.9686 19.1658 21.3634 19.2078C22.2915 19.3212 23.2239 19.4808 24.1016 19.8125C24.782 20.0729 25.433 20.4635 25.8991 21.0347C26.3401 21.5597 26.5963 22.2232 26.6929 22.9036C26.8063 23.6889 26.7727 24.5037 26.5291 25.2681C26.3401 25.8812 26.0167 26.4524 25.5968 26.9354C24.7274 27.9433 23.4507 28.5481 22.1403 28.7035C22.1823 29.5308 22.2327 30.354 22.2789 31.1813C21.1954 31.1813 20.116 31.1813 19.0367 31.1813C19.0787 30.3624 19.1333 29.5434 19.1711 28.7245C18.3017 28.6951 17.4408 28.5019 16.6302 28.1953C15.8449 27.8971 15.0973 27.5023 14.4001 27.0404C14.9125 25.7216 15.4249 24.4029 15.9415 23.08C16.5252 23.5713 17.1468 24.0291 17.8272 24.3777C18.5579 24.7515 19.3685 24.9909 20.1916 24.9993C20.5822 25.0035 20.9854 24.9825 21.355 24.8481C21.5818 24.7641 21.8044 24.6171 21.9051 24.3861C22.0101 24.1425 22.0017 23.8359 21.8422 23.6175C21.7288 23.4706 21.5692 23.3698 21.4012 23.2984C21.1744 23.206 20.9392 23.1556 20.6998 23.1178C19.8179 22.975 18.9317 22.8574 18.0792 22.5802C17.3946 22.3576 16.7268 22.0468 16.1809 21.5681C15.8365 21.2699 15.5509 20.9045 15.3493 20.4929C15.0469 19.8797 14.9335 19.1868 14.9419 18.5064C14.9419 17.7463 15.0973 16.9735 15.4753 16.3057C15.8029 15.7094 16.3026 15.2222 16.8654 14.8484C17.5458 14.399 18.3059 14.0924 19.0787 13.8447C19.0451 13.0299 19.0115 12.2151 18.9779 11.4004Z" fill="#83BD67"/>
</svg>
