<svg width="19" height="19" viewBox="0 0 19 19" fill="none" xmlns="http://www.w3.org/2000/svg">
<path d="M9.50026 2.375C13.769 2.375 17.3204 5.44648 18.065 9.5C17.3204 13.5535 13.769 16.625 9.50026 16.625C5.23145 16.625 1.68006 13.5535 0.935486 9.5C1.68006 5.44648 5.23145 2.375 9.50026 2.375ZM9.50026 15.0417C12.8534 15.0417 15.7228 12.7078 16.449 9.5C15.7228 6.29219 12.8534 3.95833 9.50026 3.95833C6.147 3.95833 3.27769 6.29219 2.55139 9.5C3.27769 12.7078 6.147 15.0417 9.50026 15.0417ZM9.50026 13.0625C7.53271 13.0625 5.93773 11.4675 5.93773 9.5C5.93773 7.53249 7.53271 5.9375 9.50026 5.9375C11.4677 5.9375 13.0628 7.53249 13.0628 9.5C13.0628 11.4675 11.4677 13.0625 9.50026 13.0625ZM9.50026 11.4792C10.5933 11.4792 11.4794 10.5931 11.4794 9.5C11.4794 8.40695 10.5933 7.52083 9.50026 7.52083C8.4072 7.52083 7.52106 8.40695 7.52106 9.5C7.52106 10.5931 8.4072 11.4792 9.50026 11.4792Z" fill="white"/>
</svg>
