<svg width="55" height="55" viewBox="0 0 55 55" fill="none" xmlns="http://www.w3.org/2000/svg">
<rect x="0.0831299" y="0.42627" width="54.1471" height="54.1471" rx="10.6793" fill="#2A2A2A"/>
<path d="M30.8116 28.4229H29.864H24.1171V31.9055H25.7292H30.8116C31.9807 31.9055 32.9406 31.1179 32.9406 30.158C32.9406 29.1981 31.9807 28.4229 30.8116 28.4229Z" fill="#FFC01E"/>
<path d="M27.1568 15.1938C20.3637 15.1938 14.8506 20.707 14.8506 27.5C14.8506 34.293 20.3637 39.8062 27.1568 39.8062C33.9498 39.8062 39.4629 34.293 39.4629 27.5C39.4629 20.707 33.9498 15.1938 27.1568 15.1938ZM30.8117 33.7515H28.7812V35.499C28.7812 36.0036 28.3628 36.422 27.8582 36.422C27.3537 36.422 26.9352 36.0036 26.9352 35.499V33.7515H25.7292H25.4462V35.499C25.4462 36.0036 25.0278 36.422 24.5232 36.422C24.0187 36.422 23.6003 36.0036 23.6003 35.499V33.7515H23.1942H21.0652C20.5606 33.7515 20.1422 33.3331 20.1422 32.8286C20.1422 32.324 20.5606 31.9056 21.0652 31.9056H22.2712V27.5V23.0944H21.0652C20.5606 23.0944 20.1422 22.676 20.1422 22.1714C20.1422 21.6669 20.5606 21.2485 21.0652 21.2485H23.1942H23.6003V19.501C23.6003 18.9965 24.0187 18.578 24.5232 18.578C25.0278 18.578 25.4462 18.9965 25.4462 19.501V21.2485H25.7292H26.9352V19.501C26.9352 18.9965 27.3537 18.578 27.8582 18.578C28.3628 18.578 28.7812 18.9965 28.7812 19.501V21.2485H29.8641C31.7716 21.2485 33.4575 22.9221 33.4575 24.8419C33.4575 25.6664 33.1622 26.4171 32.6945 27.0324C33.9375 27.6354 34.7866 28.8168 34.7866 30.1828C34.7866 32.1394 33.0022 33.7515 30.8117 33.7515Z" fill="#FFC01E"/>
<path d="M31.6115 24.829C31.6115 24.0168 30.8485 23.0815 29.864 23.0815H25.7292H24.1171V26.5642H29.864C30.8239 26.5765 31.6115 25.7889 31.6115 24.829Z" fill="#FFC01E"/>
</svg>
